{"glyphs":{"0":{"ha":833,"x_min":46,"x_max":788,"o":"m 417 -17 q 223 44 307 -17 q 92 218 139 106 q 46 486 46 331 q 92 754 46 642 q 223 928 139 867 q 417 989 307 989 q 611 928 528 989 q 741 754 694 867 q 788 486 788 642 q 741 218 788 331 q 611 44 694 106 q 417 -17 528 -17 m 165 486 q 185 316 165 392 q 242 189 206 240 l 511 857 q 417 881 468 881 q 286 833 343 881 q 197 697 229 785 q 165 486 165 608 m 417 90 q 547 138 490 90 q 636 275 604 186 q 668 486 668 364 q 648 656 668 581 q 592 783 628 732 l 321 114 q 417 90 365 90 z "},"1":{"ha":833,"x_min":97,"x_max":731,"o":"m 97 0 l 97 106 l 349 106 l 349 835 l 111 789 l 111 878 l 388 972 l 465 972 l 465 106 l 731 106 l 731 0 l 97 0 z "},"2":{"ha":833,"x_min":103,"x_max":744,"o":"m 103 0 l 103 92 q 365 311 253 211 q 538 504 476 411 q 599 694 599 597 q 549 833 599 782 q 417 883 500 883 q 308 856 353 883 q 242 782 264 828 q 219 683 219 736 l 104 683 q 147 848 106 779 q 258 953 188 917 q 417 989 328 989 q 639 910 560 989 q 718 697 718 831 q 681 530 718 610 q 581 376 643 450 q 440 235 518 303 q 283 104 363 167 l 744 104 l 744 0 l 103 0 z "},"3":{"ha":833,"x_min":86,"x_max":760,"o":"m 429 -17 q 258 19 333 -17 q 136 122 182 54 q 86 289 90 190 l 206 289 q 267 148 208 206 q 429 90 325 90 q 586 142 531 90 q 642 285 642 194 q 610 388 642 347 q 524 449 578 429 q 406 469 471 469 l 321 469 l 321 575 l 394 575 q 545 615 489 575 q 601 733 601 656 q 556 840 601 799 q 428 882 511 882 q 297 837 347 882 q 240 719 247 792 l 124 719 q 165 859 126 799 q 272 954 204 919 q 428 989 339 989 q 588 956 524 989 q 686 866 653 922 q 719 742 719 810 q 675 615 719 669 q 569 538 631 560 l 569 529 q 706 444 651 504 q 760 285 760 385 q 720 132 760 200 q 606 24 681 64 q 429 -17 532 -17 z "},"4":{"ha":833,"x_min":71,"x_max":792,"o":"m 536 0 l 536 225 l 71 225 l 71 315 l 514 972 l 653 972 l 653 331 l 792 331 l 792 225 l 653 225 l 653 0 l 536 0 m 201 331 l 542 331 l 542 836 l 201 331 z "},"5":{"ha":833,"x_min":81,"x_max":754,"o":"m 417 -17 q 244 21 317 -17 q 131 122 172 58 q 81 268 89 186 l 200 268 q 271 140 213 189 q 418 90 329 90 q 582 158 522 90 q 642 328 642 225 q 581 498 642 436 q 422 560 519 560 q 290 524 344 560 q 201 435 235 489 l 90 435 l 174 972 l 693 972 l 693 865 l 265 865 l 214 576 l 221 576 q 308 638 253 611 q 435 664 363 664 q 602 623 531 664 q 714 506 674 582 q 754 329 754 431 q 715 156 754 235 q 599 31 675 78 q 417 -17 524 -17 z "},"6":{"ha":833,"x_min":72,"x_max":758,"o":"m 436 -17 q 228 45 308 -17 q 110 212 149 107 q 72 449 72 317 q 117 730 72 608 q 245 920 161 851 q 447 989 329 989 q 606 953 540 989 q 710 858 672 918 q 756 722 749 797 l 646 722 q 579 840 632 796 q 447 883 526 883 q 320 840 378 883 q 226 705 263 796 q 183 474 189 614 l 190 474 q 289 578 222 533 q 450 622 356 622 q 607 582 538 622 q 717 471 676 542 q 758 310 758 400 q 719 147 758 221 q 606 28 679 72 q 436 -17 533 -17 m 428 89 q 582 150 524 89 q 640 303 640 211 q 582 456 640 396 q 428 517 524 517 q 316 489 364 517 q 241 413 268 461 q 214 303 214 364 q 241 193 214 242 q 316 117 268 144 q 428 89 364 89 z "},"7":{"ha":833,"x_min":88,"x_max":739,"o":"m 239 0 l 618 867 l 88 867 l 88 972 l 739 972 l 739 879 l 363 0 l 239 0 z "},"8":{"ha":833,"x_min":90,"x_max":743,"o":"m 417 -17 q 247 20 319 -17 q 132 121 174 57 q 90 267 90 185 q 139 422 90 358 q 251 511 188 486 l 251 518 q 153 602 190 547 q 117 731 117 657 q 153 860 117 801 q 258 954 190 919 q 417 989 326 989 q 573 954 506 989 q 678 860 640 919 q 717 731 717 801 q 680 602 717 657 q 582 518 643 547 l 582 511 q 694 422 646 486 q 743 267 743 358 q 701 121 743 185 q 587 20 660 57 q 417 -17 514 -17 m 417 561 q 552 606 503 561 q 601 724 601 651 q 552 840 601 794 q 417 885 503 885 q 281 840 331 885 q 232 724 232 794 q 281 606 232 651 q 417 561 331 561 m 417 89 q 567 137 510 89 q 625 276 625 185 q 567 415 625 367 q 417 463 510 463 q 266 415 324 463 q 208 276 208 367 q 266 137 208 185 q 417 89 324 89 z "},"9":{"ha":833,"x_min":82,"x_max":768,"o":"m 400 -17 q 242 19 311 -17 q 133 115 174 54 q 85 250 92 175 l 197 250 q 263 133 210 176 q 400 89 317 89 q 579 188 510 89 q 658 499 649 288 l 650 499 q 554 392 613 433 q 390 350 496 350 q 233 390 303 350 q 123 501 164 431 q 82 663 82 572 q 122 826 82 751 q 234 944 161 900 q 404 989 307 989 q 678 864 588 989 q 768 524 768 739 q 725 242 768 364 q 600 52 682 121 q 400 -17 518 -17 m 413 456 q 568 517 510 456 q 626 669 626 578 q 568 822 626 761 q 413 883 510 883 q 258 822 315 883 q 200 669 200 761 q 258 516 200 576 q 413 456 315 456 z "},"A":{"ha":833,"x_min":46,"x_max":788,"o":"m 46 0 l 350 972 l 485 972 l 788 0 l 660 0 l 589 242 l 244 242 l 174 0 l 46 0 m 414 808 l 274 339 l 560 339 l 419 808 l 414 808 z "},"Á":{"ha":833,"x_min":46,"x_max":788,"o":"m 46 0 l 350 972 l 485 972 l 788 0 l 660 0 l 589 242 l 244 242 l 174 0 l 46 0 m 414 808 l 274 339 l 560 339 l 419 808 l 414 808 z "},"Ă":{"ha":833,"x_min":46,"x_max":788,"o":"m 46 0 l 350 972 l 485 972 l 788 0 l 660 0 l 589 242 l 244 242 l 174 0 l 46 0 m 414 808 l 274 339 l 560 339 l 419 808 l 414 808 z "},"Â":{"ha":833,"x_min":46,"x_max":788,"o":"m 46 0 l 350 972 l 485 972 l 788 0 l 660 0 l 589 242 l 244 242 l 174 0 l 46 0 m 414 808 l 274 339 l 560 339 l 419 808 l 414 808 z "},"Ä":{"ha":833,"x_min":46,"x_max":788,"o":"m 46 0 l 350 972 l 485 972 l 788 0 l 660 0 l 589 242 l 244 242 l 174 0 l 46 0 m 414 808 l 274 339 l 560 339 l 419 808 l 414 808 z "},"À":{"ha":833,"x_min":46,"x_max":788,"o":"m 46 0 l 350 972 l 485 972 l 788 0 l 660 0 l 589 242 l 244 242 l 174 0 l 46 0 m 414 808 l 274 339 l 560 339 l 419 808 l 414 808 z "},"Ā":{"ha":833,"x_min":46,"x_max":788,"o":"m 46 0 l 350 972 l 485 972 l 788 0 l 660 0 l 589 242 l 244 242 l 174 0 l 46 0 m 414 808 l 274 339 l 560 339 l 419 808 l 414 808 z "},"Ą":{"ha":833,"x_min":46,"x_max":793,"o":"m 46 0 l 350 972 l 485 972 l 788 0 l 660 0 l 589 242 l 244 242 l 174 0 l 46 0 m 414 808 l 274 339 l 560 339 l 419 808 l 414 808 z "},"Å":{"ha":833,"x_min":46,"x_max":788,"o":"m 46 0 l 350 972 l 485 972 l 788 0 l 660 0 l 589 242 l 244 242 l 174 0 l 46 0 m 414 808 l 274 339 l 560 339 l 419 808 l 414 808 z "},"Ã":{"ha":833,"x_min":46,"x_max":788,"o":"m 46 0 l 350 972 l 485 972 l 788 0 l 660 0 l 589 242 l 244 242 l 174 0 l 46 0 m 414 808 l 274 339 l 560 339 l 419 808 l 414 808 z "},"Æ":{"ha":833,"x_min":3,"x_max":819,"o":"m 3 0 l 324 972 l 819 972 l 819 867 l 536 867 l 536 543 l 778 543 l 778 438 l 536 438 l 536 106 l 819 106 l 819 0 l 419 0 l 419 242 l 207 242 l 131 0 l 3 0 m 401 867 l 238 339 l 419 339 l 419 867 l 401 867 z "},"Ǽ":{"ha":833,"x_min":3,"x_max":819,"o":"m 3 0 l 324 972 l 819 972 l 819 867 l 536 867 l 536 543 l 778 543 l 778 438 l 536 438 l 536 106 l 819 106 l 819 0 l 419 0 l 419 242 l 207 242 l 131 0 l 3 0 m 401 867 l 238 339 l 419 339 l 419 867 l 401 867 z "},"B":{"ha":833,"x_min":92,"x_max":742,"o":"m 92 0 l 92 972 l 415 972 q 643 903 567 972 q 719 725 719 833 q 674 585 719 640 q 571 508 628 531 l 571 499 q 690 418 639 476 q 742 268 742 360 q 705 133 742 193 q 598 36 668 72 q 426 0 528 0 l 92 0 m 208 553 l 407 553 q 549 594 500 553 q 599 713 599 635 q 550 826 599 786 q 403 867 501 867 l 208 867 l 208 553 m 208 107 l 414 107 q 568 152 514 107 q 622 279 622 197 q 565 406 622 361 q 411 451 508 451 l 208 451 l 208 107 z "},"C":{"ha":833,"x_min":44,"x_max":772,"o":"m 424 -17 q 220 46 306 -17 q 90 221 135 108 q 44 486 44 333 q 90 751 44 638 q 220 926 135 864 q 424 989 306 989 q 665 906 574 989 q 772 686 757 824 l 643 686 q 574 824 629 768 q 424 879 518 879 q 233 774 303 879 q 164 486 164 669 q 233 197 164 301 q 424 93 303 93 q 576 146 522 93 q 643 282 629 199 l 772 282 q 662 63 750 143 q 424 -17 574 -17 z "},"Ć":{"ha":833,"x_min":44,"x_max":772,"o":"m 424 -17 q 220 46 306 -17 q 90 221 135 108 q 44 486 44 333 q 90 751 44 638 q 220 926 135 864 q 424 989 306 989 q 665 906 574 989 q 772 686 757 824 l 643 686 q 574 824 629 768 q 424 879 518 879 q 233 774 303 879 q 164 486 164 669 q 233 197 164 301 q 424 93 303 93 q 576 146 522 93 q 643 282 629 199 l 772 282 q 662 63 750 143 q 424 -17 574 -17 z "},"Č":{"ha":833,"x_min":44,"x_max":772,"o":"m 424 -17 q 220 46 306 -17 q 90 221 135 108 q 44 486 44 333 q 90 751 44 638 q 220 926 135 864 q 424 989 306 989 q 665 906 574 989 q 772 686 757 824 l 643 686 q 574 824 629 768 q 424 879 518 879 q 233 774 303 879 q 164 486 164 669 q 233 197 164 301 q 424 93 303 93 q 576 146 522 93 q 643 282 629 199 l 772 282 q 662 63 750 143 q 424 -17 574 -17 z "},"Ç":{"ha":833,"x_min":44,"x_max":772,"o":"m 424 -17 q 220 46 306 -17 q 90 221 135 108 q 44 486 44 333 q 90 751 44 638 q 220 926 135 864 q 424 989 306 989 q 665 906 574 989 q 772 686 757 824 l 643 686 q 574 824 629 768 q 424 879 518 879 q 233 774 303 879 q 164 486 164 669 q 233 197 164 301 q 424 93 303 93 q 576 146 522 93 q 643 282 629 199 l 772 282 q 662 63 750 143 q 424 -17 574 -17 z "},"Ċ":{"ha":833,"x_min":44,"x_max":772,"o":"m 424 -17 q 220 46 306 -17 q 90 221 135 108 q 44 486 44 333 q 90 751 44 638 q 220 926 135 864 q 424 989 306 989 q 665 906 574 989 q 772 686 757 824 l 643 686 q 574 824 629 768 q 424 879 518 879 q 233 774 303 879 q 164 486 164 669 q 233 197 164 301 q 424 93 303 93 q 576 146 522 93 q 643 282 629 199 l 772 282 q 662 63 750 143 q 424 -17 574 -17 z "},"D":{"ha":833,"x_min":92,"x_max":764,"o":"m 92 0 l 92 972 l 296 972 q 649 842 535 972 q 764 486 764 711 q 649 131 764 261 q 296 0 535 0 l 92 0 m 208 107 l 293 107 q 498 154 421 107 q 610 286 575 201 q 644 486 644 371 q 610 686 644 601 q 498 818 575 771 q 293 865 421 865 l 208 865 l 208 107 z "},"Ð":{"ha":833,"x_min":10,"x_max":764,"o":"m 119 0 l 119 436 l 10 436 l 10 536 l 119 536 l 119 972 l 296 972 q 649 842 535 972 q 764 486 764 711 q 649 131 764 261 q 296 0 535 0 l 119 0 m 236 107 l 293 107 q 498 154 421 107 q 610 286 575 201 q 644 486 644 371 q 610 686 644 601 q 498 818 575 771 q 293 865 421 865 l 236 865 l 236 536 l 435 536 l 435 436 l 236 436 l 236 107 z "},"Ď":{"ha":833,"x_min":92,"x_max":764,"o":"m 92 0 l 92 972 l 296 972 q 649 842 535 972 q 764 486 764 711 q 649 131 764 261 q 296 0 535 0 l 92 0 m 208 107 l 293 107 q 498 154 421 107 q 610 286 575 201 q 644 486 644 371 q 610 686 644 601 q 498 818 575 771 q 293 865 421 865 l 208 865 l 208 107 z "},"Đ":{"ha":833,"x_min":10,"x_max":764,"o":"m 119 0 l 119 436 l 10 436 l 10 536 l 119 536 l 119 972 l 296 972 q 649 842 535 972 q 764 486 764 711 q 649 131 764 261 q 296 0 535 0 l 119 0 m 236 107 l 293 107 q 498 154 421 107 q 610 286 575 201 q 644 486 644 371 q 610 686 644 601 q 498 818 575 771 q 293 865 421 865 l 236 865 l 236 536 l 435 536 l 435 436 l 236 436 l 236 107 z "},"E":{"ha":833,"x_min":119,"x_max":726,"o":"m 119 0 l 119 972 l 726 972 l 726 867 l 236 867 l 236 543 l 685 543 l 685 438 l 236 438 l 236 106 l 726 106 l 726 0 l 119 0 z "},"É":{"ha":833,"x_min":119,"x_max":726,"o":"m 119 0 l 119 972 l 726 972 l 726 867 l 236 867 l 236 543 l 685 543 l 685 438 l 236 438 l 236 106 l 726 106 l 726 0 l 119 0 z "},"Ĕ":{"ha":833,"x_min":119,"x_max":726,"o":"m 119 0 l 119 972 l 726 972 l 726 867 l 236 867 l 236 543 l 685 543 l 685 438 l 236 438 l 236 106 l 726 106 l 726 0 l 119 0 z "},"Ě":{"ha":833,"x_min":119,"x_max":726,"o":"m 119 0 l 119 972 l 726 972 l 726 867 l 236 867 l 236 543 l 685 543 l 685 438 l 236 438 l 236 106 l 726 106 l 726 0 l 119 0 z "},"Ê":{"ha":833,"x_min":119,"x_max":726,"o":"m 119 0 l 119 972 l 726 972 l 726 867 l 236 867 l 236 543 l 685 543 l 685 438 l 236 438 l 236 106 l 726 106 l 726 0 l 119 0 z "},"Ë":{"ha":833,"x_min":119,"x_max":726,"o":"m 119 0 l 119 972 l 726 972 l 726 867 l 236 867 l 236 543 l 685 543 l 685 438 l 236 438 l 236 106 l 726 106 l 726 0 l 119 0 z "},"Ė":{"ha":833,"x_min":119,"x_max":726,"o":"m 119 0 l 119 972 l 726 972 l 726 867 l 236 867 l 236 543 l 685 543 l 685 438 l 236 438 l 236 106 l 726 106 l 726 0 l 119 0 z "},"È":{"ha":833,"x_min":119,"x_max":726,"o":"m 119 0 l 119 972 l 726 972 l 726 867 l 236 867 l 236 543 l 685 543 l 685 438 l 236 438 l 236 106 l 726 106 l 726 0 l 119 0 z "},"Ē":{"ha":833,"x_min":119,"x_max":726,"o":"m 119 0 l 119 972 l 726 972 l 726 867 l 236 867 l 236 543 l 685 543 l 685 438 l 236 438 l 236 106 l 726 106 l 726 0 l 119 0 m 190 828 l 190 919 l 643 919 l 643 828 l 190 828 z "},"Ę":{"ha":833,"x_min":119,"x_max":732,"o":"m 119 0 l 119 972 l 726 972 l 726 867 l 236 867 l 236 543 l 685 543 l 685 438 l 236 438 l 236 106 l 726 106 l 726 0 l 119 0 z "},"Ẽ":{"ha":833,"x_min":119,"x_max":726,"o":"m 119 0 l 119 972 l 726 972 l 726 867 l 236 867 l 236 543 l 685 543 l 685 438 l 236 438 l 236 106 l 726 106 l 726 0 l 119 0 z "},"F":{"ha":833,"x_min":126,"x_max":733,"o":"m 126 0 l 126 972 l 733 972 l 733 864 l 243 864 l 243 525 l 663 525 l 663 421 l 243 421 l 243 0 l 126 0 z "},"G":{"ha":833,"x_min":53,"x_max":768,"o":"m 407 -17 q 224 44 304 -17 q 98 217 143 104 q 53 486 53 329 q 99 754 53 642 q 228 928 144 867 q 428 989 313 989 q 652 908 565 989 q 756 692 739 828 l 626 692 q 562 827 613 775 q 428 879 511 879 q 240 775 308 879 q 172 486 172 671 q 240 196 172 299 q 417 93 308 93 q 544 140 494 93 q 620 259 594 186 q 649 410 646 332 l 432 410 l 432 510 l 768 510 l 768 0 l 661 0 l 651 147 l 646 147 q 560 28 617 72 q 407 -17 504 -17 z "},"Ğ":{"ha":833,"x_min":53,"x_max":768,"o":"m 407 -17 q 224 44 304 -17 q 98 217 143 104 q 53 486 53 329 q 99 754 53 642 q 228 928 144 867 q 428 989 313 989 q 652 908 565 989 q 756 692 739 828 l 626 692 q 562 827 613 775 q 428 879 511 879 q 240 775 308 879 q 172 486 172 671 q 240 196 172 299 q 417 93 308 93 q 544 140 494 93 q 620 259 594 186 q 649 410 646 332 l 432 410 l 432 510 l 768 510 l 768 0 l 661 0 l 651 147 l 646 147 q 560 28 617 72 q 407 -17 504 -17 z "},"Ģ":{"ha":833,"x_min":53,"x_max":768,"o":"m 407 -17 q 224 44 304 -17 q 98 217 143 104 q 53 486 53 329 q 99 754 53 642 q 228 928 144 867 q 428 989 313 989 q 652 908 565 989 q 756 692 739 828 l 626 692 q 562 827 613 775 q 428 879 511 879 q 240 775 308 879 q 172 486 172 671 q 240 196 172 299 q 417 93 308 93 q 544 140 494 93 q 620 259 594 186 q 649 410 646 332 l 432 410 l 432 510 l 768 510 l 768 0 l 661 0 l 651 147 l 646 147 q 560 28 617 72 q 407 -17 504 -17 m 268 -367 l 350 -94 l 500 -94 l 376 -367 l 268 -367 z "},"Ġ":{"ha":833,"x_min":53,"x_max":768,"o":"m 407 -17 q 224 44 304 -17 q 98 217 143 104 q 53 486 53 329 q 99 754 53 642 q 228 928 144 867 q 428 989 313 989 q 652 908 565 989 q 756 692 739 828 l 626 692 q 562 827 613 775 q 428 879 511 879 q 240 775 308 879 q 172 486 172 671 q 240 196 172 299 q 417 93 308 93 q 544 140 494 93 q 620 259 594 186 q 649 410 646 332 l 432 410 l 432 510 l 768 510 l 768 0 l 661 0 l 651 147 l 646 147 q 560 28 617 72 q 407 -17 504 -17 z "},"H":{"ha":833,"x_min":65,"x_max":769,"o":"m 65 0 l 65 972 l 182 972 l 182 553 l 653 553 l 653 972 l 769 972 l 769 0 l 653 0 l 653 447 l 182 447 l 182 0 l 65 0 z "},"I":{"ha":833,"x_min":138,"x_max":696,"o":"m 138 0 l 138 101 l 358 101 l 358 871 l 138 871 l 138 972 l 696 972 l 696 871 l 475 871 l 475 101 l 696 101 l 696 0 l 138 0 z "},"Í":{"ha":833,"x_min":138,"x_max":696,"o":"m 138 0 l 138 101 l 358 101 l 358 871 l 138 871 l 138 972 l 696 972 l 696 871 l 475 871 l 475 101 l 696 101 l 696 0 l 138 0 z "},"Ĭ":{"ha":833,"x_min":138,"x_max":696,"o":"m 138 0 l 138 101 l 358 101 l 358 871 l 138 871 l 138 972 l 696 972 l 696 871 l 475 871 l 475 101 l 696 101 l 696 0 l 138 0 z "},"Î":{"ha":833,"x_min":138,"x_max":696,"o":"m 138 0 l 138 101 l 358 101 l 358 871 l 138 871 l 138 972 l 696 972 l 696 871 l 475 871 l 475 101 l 696 101 l 696 0 l 138 0 z "},"Ï":{"ha":833,"x_min":138,"x_max":696,"o":"m 138 0 l 138 101 l 358 101 l 358 871 l 138 871 l 138 972 l 696 972 l 696 871 l 475 871 l 475 101 l 696 101 l 696 0 l 138 0 z "},"İ":{"ha":833,"x_min":138,"x_max":696,"o":"m 138 0 l 138 101 l 358 101 l 358 871 l 138 871 l 138 972 l 696 972 l 696 871 l 475 871 l 475 101 l 696 101 l 696 0 l 138 0 z "},"Ì":{"ha":833,"x_min":138,"x_max":696,"o":"m 138 0 l 138 101 l 358 101 l 358 871 l 138 871 l 138 972 l 696 972 l 696 871 l 475 871 l 475 101 l 696 101 l 696 0 l 138 0 z "},"Ī":{"ha":833,"x_min":138,"x_max":696,"o":"m 138 0 l 138 101 l 358 101 l 358 871 l 138 871 l 138 972 l 696 972 l 696 871 l 475 871 l 475 101 l 696 101 l 696 0 l 138 0 z "},"Į":{"ha":833,"x_min":138,"x_max":701,"o":"m 138 0 l 138 101 l 358 101 l 358 871 l 138 871 l 138 972 l 696 972 l 696 871 l 475 871 l 475 101 l 696 101 l 696 0 l 138 0 z "},"Ĩ":{"ha":833,"x_min":138,"x_max":696,"o":"m 138 0 l 138 101 l 358 101 l 358 871 l 138 871 l 138 972 l 696 972 l 696 871 l 475 871 l 475 101 l 696 101 l 696 0 l 138 0 z "},"J":{"ha":833,"x_min":132,"x_max":714,"o":"m 428 -17 q 208 65 285 -17 q 132 289 132 146 l 250 289 q 293 149 251 207 q 426 92 335 92 q 558 147 518 92 q 597 286 597 203 l 597 972 l 714 972 l 714 286 q 639 62 714 140 q 428 -17 564 -17 z "},"K":{"ha":833,"x_min":114,"x_max":765,"o":"m 114 0 l 114 972 l 231 972 l 231 519 l 611 972 l 760 972 l 350 489 l 350 483 l 765 0 l 614 0 l 231 446 l 231 0 l 114 0 z "},"Ķ":{"ha":833,"x_min":114,"x_max":765,"o":"m 114 0 l 114 972 l 231 972 l 231 519 l 611 972 l 760 972 l 350 489 l 350 483 l 765 0 l 614 0 l 231 446 l 231 0 l 114 0 m 268 -367 l 350 -94 l 500 -94 l 376 -367 l 268 -367 z "},"L":{"ha":833,"x_min":121,"x_max":731,"o":"m 121 0 l 121 972 l 238 972 l 238 106 l 731 106 l 731 0 l 121 0 z "},"Ĺ":{"ha":833,"x_min":103,"x_max":731,"o":"m 121 0 l 121 972 l 238 972 l 238 106 l 731 106 l 731 0 l 121 0 z "},"Ľ":{"ha":833,"x_min":121,"x_max":733,"o":"m 121 0 l 121 972 l 238 972 l 238 106 l 731 106 l 731 0 l 121 0 m 526 661 l 593 972 l 733 972 l 626 661 l 526 661 z "},"Ļ":{"ha":833,"x_min":121,"x_max":731,"o":"m 121 0 l 121 972 l 238 972 l 238 106 l 731 106 l 731 0 l 121 0 m 276 -367 l 358 -94 l 508 -94 l 385 -367 l 276 -367 z "},"Ŀ":{"ha":833,"x_min":121,"x_max":731,"o":"m 121 0 l 121 972 l 238 972 l 238 106 l 731 106 l 731 0 l 121 0 m 607 386 q 536 415 565 386 q 507 485 507 444 q 536 554 507 525 q 607 583 565 583 q 678 554 649 583 q 708 485 708 525 q 678 415 708 444 q 607 386 649 386 z "},"Ł":{"ha":833,"x_min":28,"x_max":767,"o":"m 157 0 l 157 339 l 28 288 l 28 390 l 157 442 l 157 972 l 274 972 l 274 488 l 456 561 l 456 458 l 274 385 l 274 106 l 767 106 l 767 0 l 157 0 z "},"M":{"ha":833,"x_min":69,"x_max":764,"o":"m 69 0 l 69 972 l 194 972 l 417 510 l 639 972 l 764 972 l 764 0 l 650 0 l 650 747 l 461 354 l 372 354 l 183 746 l 183 0 l 69 0 z "},"N":{"ha":833,"x_min":79,"x_max":756,"o":"m 79 0 l 79 972 l 199 972 l 640 204 l 640 972 l 756 972 l 756 0 l 635 0 l 193 768 l 193 0 l 79 0 z "},"Ń":{"ha":833,"x_min":79,"x_max":756,"o":"m 79 0 l 79 972 l 199 972 l 640 204 l 640 972 l 756 972 l 756 0 l 635 0 l 193 768 l 193 0 l 79 0 z "},"Ň":{"ha":833,"x_min":79,"x_max":756,"o":"m 79 0 l 79 972 l 199 972 l 640 204 l 640 972 l 756 972 l 756 0 l 635 0 l 193 768 l 193 0 l 79 0 z "},"Ņ":{"ha":833,"x_min":79,"x_max":756,"o":"m 79 0 l 79 972 l 199 972 l 640 204 l 640 972 l 756 972 l 756 0 l 635 0 l 193 768 l 193 0 l 79 0 m 268 -367 l 350 -94 l 500 -94 l 376 -367 l 268 -367 z "},"Ñ":{"ha":833,"x_min":79,"x_max":756,"o":"m 79 0 l 79 972 l 199 972 l 640 204 l 640 972 l 756 972 l 756 0 l 635 0 l 193 768 l 193 0 l 79 0 z "},"O":{"ha":833,"x_min":39,"x_max":794,"o":"m 417 -17 q 214 46 299 -17 q 84 222 129 108 q 39 486 39 335 q 84 751 39 638 q 214 926 129 864 q 417 989 299 989 q 619 926 535 989 q 749 751 704 864 q 794 486 794 638 q 749 222 794 335 q 619 46 704 108 q 417 -17 535 -17 m 417 93 q 603 196 532 93 q 675 486 675 299 q 603 776 675 674 q 417 879 532 879 q 229 776 300 879 q 158 486 158 674 q 229 196 158 299 q 417 93 300 93 z "},"Ó":{"ha":833,"x_min":39,"x_max":794,"o":"m 417 -17 q 214 46 299 -17 q 84 222 129 108 q 39 486 39 335 q 84 751 39 638 q 214 926 129 864 q 417 989 299 989 q 619 926 535 989 q 749 751 704 864 q 794 486 794 638 q 749 222 794 335 q 619 46 704 108 q 417 -17 535 -17 m 417 93 q 603 196 532 93 q 675 486 675 299 q 603 776 675 674 q 417 879 532 879 q 229 776 300 879 q 158 486 158 674 q 229 196 158 299 q 417 93 300 93 z "},"Ŏ":{"ha":833,"x_min":39,"x_max":794,"o":"m 417 -17 q 214 46 299 -17 q 84 222 129 108 q 39 486 39 335 q 84 751 39 638 q 214 926 129 864 q 417 989 299 989 q 619 926 535 989 q 749 751 704 864 q 794 486 794 638 q 749 222 794 335 q 619 46 704 108 q 417 -17 535 -17 m 417 93 q 603 196 532 93 q 675 486 675 299 q 603 776 675 674 q 417 879 532 879 q 229 776 300 879 q 158 486 158 674 q 229 196 158 299 q 417 93 300 93 z "},"Ô":{"ha":833,"x_min":39,"x_max":794,"o":"m 417 -17 q 214 46 299 -17 q 84 222 129 108 q 39 486 39 335 q 84 751 39 638 q 214 926 129 864 q 417 989 299 989 q 619 926 535 989 q 749 751 704 864 q 794 486 794 638 q 749 222 794 335 q 619 46 704 108 q 417 -17 535 -17 m 417 93 q 603 196 532 93 q 675 486 675 299 q 603 776 675 674 q 417 879 532 879 q 229 776 300 879 q 158 486 158 674 q 229 196 158 299 q 417 93 300 93 z "},"Ö":{"ha":833,"x_min":39,"x_max":794,"o":"m 417 -17 q 214 46 299 -17 q 84 222 129 108 q 39 486 39 335 q 84 751 39 638 q 214 926 129 864 q 417 989 299 989 q 619 926 535 989 q 749 751 704 864 q 794 486 794 638 q 749 222 794 335 q 619 46 704 108 q 417 -17 535 -17 m 417 93 q 603 196 532 93 q 675 486 675 299 q 603 776 675 674 q 417 879 532 879 q 229 776 300 879 q 158 486 158 674 q 229 196 158 299 q 417 93 300 93 z "},"Ò":{"ha":833,"x_min":39,"x_max":794,"o":"m 417 -17 q 214 46 299 -17 q 84 222 129 108 q 39 486 39 335 q 84 751 39 638 q 214 926 129 864 q 417 989 299 989 q 619 926 535 989 q 749 751 704 864 q 794 486 794 638 q 749 222 794 335 q 619 46 704 108 q 417 -17 535 -17 m 417 93 q 603 196 532 93 q 675 486 675 299 q 603 776 675 674 q 417 879 532 879 q 229 776 300 879 q 158 486 158 674 q 229 196 158 299 q 417 93 300 93 z "},"Ő":{"ha":833,"x_min":39,"x_max":794,"o":"m 417 -17 q 214 46 299 -17 q 84 222 129 108 q 39 486 39 335 q 84 751 39 638 q 214 926 129 864 q 417 989 299 989 q 619 926 535 989 q 749 751 704 864 q 794 486 794 638 q 749 222 794 335 q 619 46 704 108 q 417 -17 535 -17 m 417 93 q 603 196 532 93 q 675 486 675 299 q 603 776 675 674 q 417 879 532 879 q 229 776 300 879 q 158 486 158 674 q 229 196 158 299 q 417 93 300 93 z "},"Ō":{"ha":833,"x_min":39,"x_max":794,"o":"m 417 -17 q 214 46 299 -17 q 84 222 129 108 q 39 486 39 335 q 84 751 39 638 q 214 926 129 864 q 417 989 299 989 q 619 926 535 989 q 749 751 704 864 q 794 486 794 638 q 749 222 794 335 q 619 46 704 108 q 417 -17 535 -17 m 417 93 q 603 196 532 93 q 675 486 675 299 q 603 776 675 674 q 417 879 532 879 q 229 776 300 879 q 158 486 158 674 q 229 196 158 299 q 417 93 300 93 z "},"Ø":{"ha":833,"x_min":38,"x_max":797,"o":"m 38 -28 l 135 128 q 39 486 39 263 q 84 751 39 638 q 214 926 129 864 q 417 989 299 989 q 629 918 539 989 l 679 1000 l 797 1000 l 700 843 q 794 486 794 708 q 749 222 794 335 q 619 46 704 108 q 417 -17 535 -17 q 206 53 294 -17 l 156 -28 l 38 -28 m 158 486 q 170 349 158 411 q 204 240 182 288 l 567 819 q 417 879 504 879 q 229 776 300 879 q 158 486 158 674 m 417 93 q 603 196 532 93 q 675 486 675 299 q 663 622 675 561 q 629 731 651 683 l 268 151 q 417 93 329 93 z "},"Õ":{"ha":833,"x_min":39,"x_max":794,"o":"m 417 -17 q 214 46 299 -17 q 84 222 129 108 q 39 486 39 335 q 84 751 39 638 q 214 926 129 864 q 417 989 299 989 q 619 926 535 989 q 749 751 704 864 q 794 486 794 638 q 749 222 794 335 q 619 46 704 108 q 417 -17 535 -17 m 417 93 q 603 196 532 93 q 675 486 675 299 q 603 776 675 674 q 417 879 532 879 q 229 776 300 879 q 158 486 158 674 q 229 196 158 299 q 417 93 300 93 z "},"Œ":{"ha":833,"x_min":29,"x_max":819,"o":"m 274 -17 q 145 34 200 -17 q 60 196 90 85 q 29 486 29 307 q 60 776 29 665 q 146 938 90 888 q 274 989 201 989 q 365 966 326 989 q 431 893 404 943 l 436 893 l 436 972 l 819 972 l 819 867 l 551 867 l 551 543 l 778 543 l 778 438 l 551 438 l 551 106 l 819 106 l 819 0 l 436 0 l 436 92 l 431 92 q 370 11 406 39 q 274 -17 335 -17 m 290 89 q 402 179 361 89 q 443 486 443 269 q 402 793 443 703 q 290 883 361 883 q 181 793 218 883 q 144 486 144 703 q 181 179 144 269 q 290 89 218 89 z "},"P":{"ha":833,"x_min":103,"x_max":746,"o":"m 103 0 l 103 972 l 426 972 q 608 932 538 972 q 713 825 679 892 q 746 678 746 758 q 713 531 746 597 q 608 424 679 464 q 426 383 538 383 l 219 383 l 219 0 l 103 0 m 219 490 l 424 490 q 576 542 526 490 q 626 678 626 594 q 576 814 626 761 q 424 867 526 867 l 219 867 l 219 490 z "},"Þ":{"ha":833,"x_min":103,"x_max":746,"o":"m 103 0 l 103 972 l 219 972 l 219 781 l 426 781 q 608 740 538 781 q 713 633 679 700 q 746 486 746 567 q 713 339 746 406 q 608 232 679 272 q 426 192 538 192 l 219 192 l 219 0 l 103 0 m 219 297 l 424 297 q 576 350 526 297 q 626 486 626 403 q 576 622 626 569 q 424 675 526 675 l 219 675 l 219 297 z "},"Q":{"ha":833,"x_min":39,"x_max":794,"o":"m 417 -17 q 214 46 299 -17 q 84 222 129 108 q 39 486 39 335 q 84 751 39 638 q 214 926 129 864 q 417 989 299 989 q 619 926 535 989 q 749 751 704 864 q 794 486 794 638 q 735 190 794 313 q 568 15 675 67 l 776 -207 l 624 -207 l 446 -15 q 417 -17 431 -17 m 417 93 q 603 196 532 93 q 675 486 675 299 q 603 776 675 674 q 417 879 532 879 q 229 776 300 879 q 158 486 158 674 q 229 196 158 299 q 417 93 300 93 z "},"R":{"ha":833,"x_min":114,"x_max":754,"o":"m 114 0 l 114 972 l 413 972 q 598 935 525 972 q 707 833 671 897 q 743 686 743 768 q 694 517 743 590 q 543 415 644 444 l 754 0 l 615 0 l 419 399 l 413 399 l 231 399 l 231 0 l 114 0 m 231 506 l 408 506 q 572 556 519 506 q 624 686 624 607 q 573 818 624 769 q 407 867 522 867 l 231 867 l 231 506 z "},"Ŕ":{"ha":833,"x_min":114,"x_max":754,"o":"m 114 0 l 114 972 l 413 972 q 598 935 525 972 q 707 833 671 897 q 743 686 743 768 q 694 517 743 590 q 543 415 644 444 l 754 0 l 615 0 l 419 399 l 413 399 l 231 399 l 231 0 l 114 0 m 231 506 l 408 506 q 572 556 519 506 q 624 686 624 607 q 573 818 624 769 q 407 867 522 867 l 231 867 l 231 506 z "},"Ř":{"ha":833,"x_min":114,"x_max":754,"o":"m 114 0 l 114 972 l 413 972 q 598 935 525 972 q 707 833 671 897 q 743 686 743 768 q 694 517 743 590 q 543 415 644 444 l 754 0 l 615 0 l 419 399 l 413 399 l 231 399 l 231 0 l 114 0 m 231 506 l 408 506 q 572 556 519 506 q 624 686 624 607 q 573 818 624 769 q 407 867 522 867 l 231 867 l 231 506 z "},"Ŗ":{"ha":833,"x_min":114,"x_max":754,"o":"m 114 0 l 114 972 l 413 972 q 598 935 525 972 q 707 833 671 897 q 743 686 743 768 q 694 517 743 590 q 543 415 644 444 l 754 0 l 615 0 l 419 399 l 413 399 l 231 399 l 231 0 l 114 0 m 231 506 l 408 506 q 572 556 519 506 q 624 686 624 607 q 573 818 624 769 q 407 867 522 867 l 231 867 l 231 506 m 268 -367 l 350 -94 l 500 -94 l 376 -367 l 268 -367 z "},"S":{"ha":833,"x_min":89,"x_max":747,"o":"m 426 -17 q 248 22 324 -17 q 131 131 172 61 q 89 293 90 200 l 211 293 q 267 149 213 210 q 426 89 322 89 q 574 135 522 89 q 626 247 626 182 q 601 338 626 301 q 520 403 576 375 q 369 463 464 432 q 175 572 236 503 q 114 744 114 642 q 150 869 114 814 q 254 957 186 925 q 419 989 322 989 q 580 955 511 989 q 687 860 649 921 q 725 719 725 799 l 603 719 q 582 796 603 758 q 519 858 561 833 q 414 883 478 883 q 286 847 338 883 q 235 746 235 810 q 258 664 235 697 q 333 603 281 631 q 476 546 386 576 q 622 481 561 518 q 715 390 682 444 q 747 256 747 336 q 707 115 747 176 q 594 19 667 54 q 426 -17 522 -17 z "},"Ś":{"ha":833,"x_min":89,"x_max":747,"o":"m 426 -17 q 248 22 324 -17 q 131 131 172 61 q 89 293 90 200 l 211 293 q 267 149 213 210 q 426 89 322 89 q 574 135 522 89 q 626 247 626 182 q 601 338 626 301 q 520 403 576 375 q 369 463 464 432 q 175 572 236 503 q 114 744 114 642 q 150 869 114 814 q 254 957 186 925 q 419 989 322 989 q 580 955 511 989 q 687 860 649 921 q 725 719 725 799 l 603 719 q 582 796 603 758 q 519 858 561 833 q 414 883 478 883 q 286 847 338 883 q 235 746 235 810 q 258 664 235 697 q 333 603 281 631 q 476 546 386 576 q 622 481 561 518 q 715 390 682 444 q 747 256 747 336 q 707 115 747 176 q 594 19 667 54 q 426 -17 522 -17 z "},"Š":{"ha":833,"x_min":89,"x_max":747,"o":"m 426 -17 q 248 22 324 -17 q 131 131 172 61 q 89 293 90 200 l 211 293 q 267 149 213 210 q 426 89 322 89 q 574 135 522 89 q 626 247 626 182 q 601 338 626 301 q 520 403 576 375 q 369 463 464 432 q 175 572 236 503 q 114 744 114 642 q 150 869 114 814 q 254 957 186 925 q 419 989 322 989 q 580 955 511 989 q 687 860 649 921 q 725 719 725 799 l 603 719 q 582 796 603 758 q 519 858 561 833 q 414 883 478 883 q 286 847 338 883 q 235 746 235 810 q 258 664 235 697 q 333 603 281 631 q 476 546 386 576 q 622 481 561 518 q 715 390 682 444 q 747 256 747 336 q 707 115 747 176 q 594 19 667 54 q 426 -17 522 -17 z "},"Ş":{"ha":833,"x_min":89,"x_max":747,"o":"m 426 -17 q 248 22 324 -17 q 131 131 172 61 q 89 293 90 200 l 211 293 q 267 149 213 210 q 426 89 322 89 q 574 135 522 89 q 626 247 626 182 q 601 338 626 301 q 520 403 576 375 q 369 463 464 432 q 175 572 236 503 q 114 744 114 642 q 150 869 114 814 q 254 957 186 925 q 419 989 322 989 q 580 955 511 989 q 687 860 649 921 q 725 719 725 799 l 603 719 q 582 796 603 758 q 519 858 561 833 q 414 883 478 883 q 286 847 338 883 q 235 746 235 810 q 258 664 235 697 q 333 603 281 631 q 476 546 386 576 q 622 481 561 518 q 715 390 682 444 q 747 256 747 336 q 707 115 747 176 q 594 19 667 54 q 426 -17 522 -17 z "},"Ș":{"ha":833,"x_min":89,"x_max":747,"o":"m 426 -17 q 248 22 324 -17 q 131 131 172 61 q 89 293 90 200 l 211 293 q 267 149 213 210 q 426 89 322 89 q 574 135 522 89 q 626 247 626 182 q 601 338 626 301 q 520 403 576 375 q 369 463 464 432 q 175 572 236 503 q 114 744 114 642 q 150 869 114 814 q 254 957 186 925 q 419 989 322 989 q 580 955 511 989 q 687 860 649 921 q 725 719 725 799 l 603 719 q 582 796 603 758 q 519 858 561 833 q 414 883 478 883 q 286 847 338 883 q 235 746 235 810 q 258 664 235 697 q 333 603 281 631 q 476 546 386 576 q 622 481 561 518 q 715 390 682 444 q 747 256 747 336 q 707 115 747 176 q 594 19 667 54 q 426 -17 522 -17 m 268 -367 l 350 -94 l 500 -94 l 376 -367 l 268 -367 z "},"Ə":{"ha":833,"x_min":54,"x_max":792,"o":"m 399 -17 q 242 22 307 -17 q 135 126 176 60 q 74 278 93 193 q 54 460 54 364 q 55 490 54 474 q 57 526 56 507 l 671 526 q 630 722 667 644 q 535 840 593 800 q 413 879 478 879 q 269 832 328 879 q 190 706 210 785 l 69 706 q 129 846 86 782 q 243 949 172 910 q 413 989 314 989 q 615 928 531 989 q 746 757 700 868 q 792 493 792 646 q 743 222 792 336 q 606 45 694 107 q 399 -17 518 -17 m 401 92 q 531 130 472 92 q 627 242 590 168 q 671 422 664 317 l 174 422 q 231 181 176 271 q 401 92 286 92 z "},"T":{"ha":833,"x_min":97,"x_max":736,"o":"m 358 0 l 358 867 l 97 867 l 97 972 l 736 972 l 736 867 l 475 867 l 475 0 l 358 0 z "},"Ť":{"ha":833,"x_min":97,"x_max":736,"o":"m 358 0 l 358 867 l 97 867 l 97 972 l 736 972 l 736 867 l 475 867 l 475 0 l 358 0 z "},"Ţ":{"ha":833,"x_min":97,"x_max":736,"o":"m 358 0 l 358 867 l 97 867 l 97 972 l 736 972 l 736 867 l 475 867 l 475 0 l 358 0 z "},"Ț":{"ha":833,"x_min":97,"x_max":736,"o":"m 358 0 l 358 867 l 97 867 l 97 972 l 736 972 l 736 867 l 475 867 l 475 0 l 358 0 m 268 -367 l 350 -94 l 500 -94 l 376 -367 l 268 -367 z "},"U":{"ha":833,"x_min":79,"x_max":754,"o":"m 415 -17 q 242 24 318 -17 q 123 147 167 64 q 79 354 79 229 l 79 972 l 196 972 l 196 350 q 257 157 196 225 q 418 89 318 89 q 578 157 518 89 q 638 350 638 225 l 638 972 l 754 972 l 754 354 q 710 147 754 229 q 589 24 665 64 q 415 -17 513 -17 z "},"Ú":{"ha":833,"x_min":79,"x_max":754,"o":"m 415 -17 q 242 24 318 -17 q 123 147 167 64 q 79 354 79 229 l 79 972 l 196 972 l 196 350 q 257 157 196 225 q 418 89 318 89 q 578 157 518 89 q 638 350 638 225 l 638 972 l 754 972 l 754 354 q 710 147 754 229 q 589 24 665 64 q 415 -17 513 -17 z "},"Ŭ":{"ha":833,"x_min":79,"x_max":754,"o":"m 415 -17 q 242 24 318 -17 q 123 147 167 64 q 79 354 79 229 l 79 972 l 196 972 l 196 350 q 257 157 196 225 q 418 89 318 89 q 578 157 518 89 q 638 350 638 225 l 638 972 l 754 972 l 754 354 q 710 147 754 229 q 589 24 665 64 q 415 -17 513 -17 z "},"Û":{"ha":833,"x_min":79,"x_max":754,"o":"m 415 -17 q 242 24 318 -17 q 123 147 167 64 q 79 354 79 229 l 79 972 l 196 972 l 196 350 q 257 157 196 225 q 418 89 318 89 q 578 157 518 89 q 638 350 638 225 l 638 972 l 754 972 l 754 354 q 710 147 754 229 q 589 24 665 64 q 415 -17 513 -17 z "},"Ü":{"ha":833,"x_min":79,"x_max":754,"o":"m 415 -17 q 242 24 318 -17 q 123 147 167 64 q 79 354 79 229 l 79 972 l 196 972 l 196 350 q 257 157 196 225 q 418 89 318 89 q 578 157 518 89 q 638 350 638 225 l 638 972 l 754 972 l 754 354 q 710 147 754 229 q 589 24 665 64 q 415 -17 513 -17 z "},"Ù":{"ha":833,"x_min":79,"x_max":754,"o":"m 415 -17 q 242 24 318 -17 q 123 147 167 64 q 79 354 79 229 l 79 972 l 196 972 l 196 350 q 257 157 196 225 q 418 89 318 89 q 578 157 518 89 q 638 350 638 225 l 638 972 l 754 972 l 754 354 q 710 147 754 229 q 589 24 665 64 q 415 -17 513 -17 z "},"Ű":{"ha":833,"x_min":79,"x_max":754,"o":"m 415 -17 q 242 24 318 -17 q 123 147 167 64 q 79 354 79 229 l 79 972 l 196 972 l 196 350 q 257 157 196 225 q 418 89 318 89 q 578 157 518 89 q 638 350 638 225 l 638 972 l 754 972 l 754 354 q 710 147 754 229 q 589 24 665 64 q 415 -17 513 -17 z "},"Ū":{"ha":833,"x_min":79,"x_max":754,"o":"m 415 -17 q 242 24 318 -17 q 123 147 167 64 q 79 354 79 229 l 79 972 l 196 972 l 196 350 q 257 157 196 225 q 418 89 318 89 q 578 157 518 89 q 638 350 638 225 l 638 972 l 754 972 l 754 354 q 710 147 754 229 q 589 24 665 64 q 415 -17 513 -17 z "},"Ų":{"ha":833,"x_min":79,"x_max":754,"o":"m 415 -17 q 242 24 318 -17 q 123 147 167 64 q 79 354 79 229 l 79 972 l 196 972 l 196 350 q 257 157 196 225 q 418 89 318 89 q 578 157 518 89 q 638 350 638 225 l 638 972 l 754 972 l 754 354 q 710 147 754 229 q 589 24 665 64 q 415 -17 513 -17 z "},"Ů":{"ha":833,"x_min":79,"x_max":754,"o":"m 415 -17 q 242 24 318 -17 q 123 147 167 64 q 79 354 79 229 l 79 972 l 196 972 l 196 350 q 257 157 196 225 q 418 89 318 89 q 578 157 518 89 q 638 350 638 225 l 638 972 l 754 972 l 754 354 q 710 147 754 229 q 589 24 665 64 q 415 -17 513 -17 z "},"Ũ":{"ha":833,"x_min":79,"x_max":754,"o":"m 415 -17 q 242 24 318 -17 q 123 147 167 64 q 79 354 79 229 l 79 972 l 196 972 l 196 350 q 257 157 196 225 q 418 89 318 89 q 578 157 518 89 q 638 350 638 225 l 638 972 l 754 972 l 754 354 q 710 147 754 229 q 589 24 665 64 q 415 -17 513 -17 z "},"V":{"ha":833,"x_min":38,"x_max":797,"o":"m 347 0 l 38 972 l 163 972 l 417 151 l 671 972 l 797 972 l 486 0 l 347 0 z "},"W":{"ha":833,"x_min":3,"x_max":831,"o":"m 151 0 l 3 972 l 121 972 l 219 222 l 357 972 l 476 972 l 614 222 l 713 972 l 831 972 l 682 0 l 549 0 l 417 747 l 285 0 l 151 0 z "},"Ẃ":{"ha":833,"x_min":3,"x_max":831,"o":"m 151 0 l 3 972 l 121 972 l 219 222 l 357 972 l 476 972 l 614 222 l 713 972 l 831 972 l 682 0 l 549 0 l 417 747 l 285 0 l 151 0 z "},"Ŵ":{"ha":833,"x_min":3,"x_max":831,"o":"m 151 0 l 3 972 l 121 972 l 219 222 l 357 972 l 476 972 l 614 222 l 713 972 l 831 972 l 682 0 l 549 0 l 417 747 l 285 0 l 151 0 z "},"Ẅ":{"ha":833,"x_min":3,"x_max":831,"o":"m 151 0 l 3 972 l 121 972 l 219 222 l 357 972 l 476 972 l 614 222 l 713 972 l 831 972 l 682 0 l 549 0 l 417 747 l 285 0 l 151 0 z "},"Ẁ":{"ha":833,"x_min":3,"x_max":831,"o":"m 151 0 l 3 972 l 121 972 l 219 222 l 357 972 l 476 972 l 614 222 l 713 972 l 831 972 l 682 0 l 549 0 l 417 747 l 285 0 l 151 0 z "},"X":{"ha":833,"x_min":57,"x_max":776,"o":"m 57 0 l 350 486 l 57 972 l 190 972 l 419 592 l 643 972 l 776 972 l 482 488 l 776 0 l 643 0 l 413 382 l 190 0 l 57 0 z "},"Y":{"ha":833,"x_min":43,"x_max":790,"o":"m 358 0 l 358 382 l 43 972 l 175 972 l 417 500 l 658 972 l 790 972 l 475 382 l 475 0 l 358 0 z "},"Ý":{"ha":833,"x_min":43,"x_max":790,"o":"m 358 0 l 358 382 l 43 972 l 175 972 l 417 500 l 658 972 l 790 972 l 475 382 l 475 0 l 358 0 z "},"Ŷ":{"ha":833,"x_min":43,"x_max":790,"o":"m 358 0 l 358 382 l 43 972 l 175 972 l 417 500 l 658 972 l 790 972 l 475 382 l 475 0 l 358 0 z "},"Ÿ":{"ha":833,"x_min":43,"x_max":790,"o":"m 358 0 l 358 382 l 43 972 l 175 972 l 417 500 l 658 972 l 790 972 l 475 382 l 475 0 l 358 0 z "},"Ỳ":{"ha":833,"x_min":43,"x_max":790,"o":"m 358 0 l 358 382 l 43 972 l 175 972 l 417 500 l 658 972 l 790 972 l 475 382 l 475 0 l 358 0 z "},"Ỹ":{"ha":833,"x_min":43,"x_max":790,"o":"m 358 0 l 358 382 l 43 972 l 175 972 l 417 500 l 658 972 l 790 972 l 475 382 l 475 0 l 358 0 z "},"Z":{"ha":833,"x_min":96,"x_max":739,"o":"m 96 0 l 96 96 l 599 867 l 103 867 l 103 972 l 733 972 l 733 876 l 229 106 l 739 106 l 739 0 l 96 0 z "},"Ź":{"ha":833,"x_min":96,"x_max":739,"o":"m 96 0 l 96 96 l 599 867 l 103 867 l 103 972 l 733 972 l 733 876 l 229 106 l 739 106 l 739 0 l 96 0 z "},"Ž":{"ha":833,"x_min":96,"x_max":739,"o":"m 96 0 l 96 96 l 599 867 l 103 867 l 103 972 l 733 972 l 733 876 l 229 106 l 739 106 l 739 0 l 96 0 z "},"Ż":{"ha":833,"x_min":96,"x_max":739,"o":"m 96 0 l 96 96 l 599 867 l 103 867 l 103 972 l 733 972 l 733 876 l 229 106 l 739 106 l 739 0 l 96 0 z "},"a":{"ha":833,"x_min":115,"x_max":704,"o":"m 358 -17 q 222 13 276 -17 q 142 90 168 42 q 115 194 115 138 q 192 355 115 300 q 399 410 269 410 l 588 410 l 588 424 q 422 604 588 604 q 310 575 356 604 q 253 483 265 546 l 133 483 q 180 603 140 553 q 282 679 219 653 q 422 706 344 706 q 637 628 569 706 q 704 424 704 551 l 704 0 l 604 0 l 594 107 l 585 107 q 503 20 554 57 q 358 -17 453 -17 m 379 86 q 492 118 446 86 q 563 203 539 150 q 588 318 588 256 l 408 318 q 276 286 314 318 q 238 201 238 254 q 274 117 238 147 q 379 86 310 86 z "},"á":{"ha":833,"x_min":115,"x_max":704,"o":"m 358 -17 q 222 13 276 -17 q 142 90 168 42 q 115 194 115 138 q 192 355 115 300 q 399 410 269 410 l 588 410 l 588 424 q 422 604 588 604 q 310 575 356 604 q 253 483 265 546 l 133 483 q 180 603 140 553 q 282 679 219 653 q 422 706 344 706 q 637 628 569 706 q 704 424 704 551 l 704 0 l 604 0 l 594 107 l 585 107 q 503 20 554 57 q 358 -17 453 -17 m 379 86 q 492 118 446 86 q 563 203 539 150 q 588 318 588 256 l 408 318 q 276 286 314 318 q 238 201 238 254 q 274 117 238 147 q 379 86 310 86 z "},"ă":{"ha":833,"x_min":115,"x_max":704,"o":"m 358 -17 q 222 13 276 -17 q 142 90 168 42 q 115 194 115 138 q 192 355 115 300 q 399 410 269 410 l 588 410 l 588 424 q 422 604 588 604 q 310 575 356 604 q 253 483 265 546 l 133 483 q 180 603 140 553 q 282 679 219 653 q 422 706 344 706 q 637 628 569 706 q 704 424 704 551 l 704 0 l 604 0 l 594 107 l 585 107 q 503 20 554 57 q 358 -17 453 -17 m 379 86 q 492 118 446 86 q 563 203 539 150 q 588 318 588 256 l 408 318 q 276 286 314 318 q 238 201 238 254 q 274 117 238 147 q 379 86 310 86 z "},"â":{"ha":833,"x_min":115,"x_max":704,"o":"m 358 -17 q 222 13 276 -17 q 142 90 168 42 q 115 194 115 138 q 192 355 115 300 q 399 410 269 410 l 588 410 l 588 424 q 422 604 588 604 q 310 575 356 604 q 253 483 265 546 l 133 483 q 180 603 140 553 q 282 679 219 653 q 422 706 344 706 q 637 628 569 706 q 704 424 704 551 l 704 0 l 604 0 l 594 107 l 585 107 q 503 20 554 57 q 358 -17 453 -17 m 379 86 q 492 118 446 86 q 563 203 539 150 q 588 318 588 256 l 408 318 q 276 286 314 318 q 238 201 238 254 q 274 117 238 147 q 379 86 310 86 z "},"ä":{"ha":833,"x_min":115,"x_max":704,"o":"m 358 -17 q 222 13 276 -17 q 142 90 168 42 q 115 194 115 138 q 192 355 115 300 q 399 410 269 410 l 588 410 l 588 424 q 422 604 588 604 q 310 575 356 604 q 253 483 265 546 l 133 483 q 180 603 140 553 q 282 679 219 653 q 422 706 344 706 q 637 628 569 706 q 704 424 704 551 l 704 0 l 604 0 l 594 107 l 585 107 q 503 20 554 57 q 358 -17 453 -17 m 379 86 q 492 118 446 86 q 563 203 539 150 q 588 318 588 256 l 408 318 q 276 286 314 318 q 238 201 238 254 q 274 117 238 147 q 379 86 310 86 z "},"à":{"ha":833,"x_min":115,"x_max":704,"o":"m 358 -17 q 222 13 276 -17 q 142 90 168 42 q 115 194 115 138 q 192 355 115 300 q 399 410 269 410 l 588 410 l 588 424 q 422 604 588 604 q 310 575 356 604 q 253 483 265 546 l 133 483 q 180 603 140 553 q 282 679 219 653 q 422 706 344 706 q 637 628 569 706 q 704 424 704 551 l 704 0 l 604 0 l 594 107 l 585 107 q 503 20 554 57 q 358 -17 453 -17 m 379 86 q 492 118 446 86 q 563 203 539 150 q 588 318 588 256 l 408 318 q 276 286 314 318 q 238 201 238 254 q 274 117 238 147 q 379 86 310 86 z "},"ā":{"ha":833,"x_min":115,"x_max":704,"o":"m 358 -17 q 222 13 276 -17 q 142 90 168 42 q 115 194 115 138 q 192 355 115 300 q 399 410 269 410 l 588 410 l 588 424 q 422 604 588 604 q 310 575 356 604 q 253 483 265 546 l 133 483 q 180 603 140 553 q 282 679 219 653 q 422 706 344 706 q 637 628 569 706 q 704 424 704 551 l 704 0 l 604 0 l 594 107 l 585 107 q 503 20 554 57 q 358 -17 453 -17 m 379 86 q 492 118 446 86 q 563 203 539 150 q 588 318 588 256 l 408 318 q 276 286 314 318 q 238 201 238 254 q 274 117 238 147 q 379 86 310 86 z "},"ą":{"ha":833,"x_min":115,"x_max":710,"o":"m 358 -17 q 222 13 276 -17 q 142 90 168 42 q 115 194 115 138 q 192 355 115 300 q 399 410 269 410 l 588 410 l 588 424 q 422 604 588 604 q 310 575 356 604 q 253 483 265 546 l 133 483 q 180 603 140 553 q 282 679 219 653 q 422 706 344 706 q 637 628 569 706 q 704 424 704 551 l 704 0 l 604 0 l 594 107 l 585 107 q 503 20 554 57 q 358 -17 453 -17 m 379 86 q 492 118 446 86 q 563 203 539 150 q 588 318 588 256 l 408 318 q 276 286 314 318 q 238 201 238 254 q 274 117 238 147 q 379 86 310 86 z "},"å":{"ha":833,"x_min":115,"x_max":704,"o":"m 358 -17 q 222 13 276 -17 q 142 90 168 42 q 115 194 115 138 q 192 355 115 300 q 399 410 269 410 l 588 410 l 588 424 q 422 604 588 604 q 310 575 356 604 q 253 483 265 546 l 133 483 q 180 603 140 553 q 282 679 219 653 q 422 706 344 706 q 637 628 569 706 q 704 424 704 551 l 704 0 l 604 0 l 594 107 l 585 107 q 503 20 554 57 q 358 -17 453 -17 m 379 86 q 492 118 446 86 q 563 203 539 150 q 588 318 588 256 l 408 318 q 276 286 314 318 q 238 201 238 254 q 274 117 238 147 q 379 86 310 86 z "},"ã":{"ha":833,"x_min":115,"x_max":704,"o":"m 358 -17 q 222 13 276 -17 q 142 90 168 42 q 115 194 115 138 q 192 355 115 300 q 399 410 269 410 l 588 410 l 588 424 q 422 604 588 604 q 310 575 356 604 q 253 483 265 546 l 133 483 q 180 603 140 553 q 282 679 219 653 q 422 706 344 706 q 637 628 569 706 q 704 424 704 551 l 704 0 l 604 0 l 594 107 l 585 107 q 503 20 554 57 q 358 -17 453 -17 m 379 86 q 492 118 446 86 q 563 203 539 150 q 588 318 588 256 l 408 318 q 276 286 314 318 q 238 201 238 254 q 274 117 238 147 q 379 86 310 86 z "},"æ":{"ha":833,"x_min":25,"x_max":817,"o":"m 217 -17 q 113 12 156 -17 q 48 86 71 40 q 25 188 25 132 q 97 357 25 299 q 282 415 168 415 l 358 415 l 358 479 q 331 574 358 543 q 258 604 304 604 q 190 577 217 604 q 161 497 164 550 l 47 497 q 112 649 53 593 q 256 706 171 706 q 363 679 321 706 q 426 607 406 653 q 495 677 453 649 q 596 706 538 706 q 762 623 707 706 q 817 388 817 540 q 815 353 817 372 q 814 319 814 335 l 472 319 q 509 147 475 204 q 592 90 543 90 q 690 211 667 90 l 800 211 q 738 49 789 115 q 586 -17 686 -17 q 476 22 522 -17 q 413 113 431 61 l 408 113 q 331 17 385 50 q 217 -17 278 -17 m 475 415 l 704 415 q 673 553 700 504 q 593 601 646 601 q 509 552 539 601 q 475 415 479 503 m 238 86 q 323 126 288 86 q 358 243 358 167 l 358 319 l 292 319 q 181 285 217 319 q 144 193 144 251 q 168 115 144 143 q 238 86 192 86 z "},"ǽ":{"ha":833,"x_min":25,"x_max":817,"o":"m 217 -17 q 113 12 156 -17 q 48 86 71 40 q 25 188 25 132 q 97 357 25 299 q 282 415 168 415 l 358 415 l 358 479 q 331 574 358 543 q 258 604 304 604 q 190 577 217 604 q 161 497 164 550 l 47 497 q 112 649 53 593 q 256 706 171 706 q 363 679 321 706 q 426 607 406 653 q 495 677 453 649 q 596 706 538 706 q 762 623 707 706 q 817 388 817 540 q 815 353 817 372 q 814 319 814 335 l 472 319 q 509 147 475 204 q 592 90 543 90 q 690 211 667 90 l 800 211 q 738 49 789 115 q 586 -17 686 -17 q 476 22 522 -17 q 413 113 431 61 l 408 113 q 331 17 385 50 q 217 -17 278 -17 m 475 415 l 704 415 q 673 553 700 504 q 593 601 646 601 q 509 552 539 601 q 475 415 479 503 m 238 86 q 323 126 288 86 q 358 243 358 167 l 358 319 l 292 319 q 181 285 217 319 q 144 193 144 251 q 168 115 144 143 q 238 86 192 86 z "},"b":{"ha":833,"x_min":108,"x_max":743,"o":"m 440 -17 q 306 16 361 -17 q 225 106 251 49 l 217 106 l 204 0 l 108 0 l 108 1000 l 225 1000 l 225 590 q 308 671 251 636 q 440 706 364 706 q 597 664 529 706 q 704 542 665 622 q 743 346 743 461 q 704 148 743 229 q 597 25 665 67 q 440 -17 528 -17 m 425 94 q 569 156 513 94 q 625 344 625 218 q 569 533 625 471 q 425 594 513 594 q 281 533 338 594 q 224 344 224 471 q 281 156 224 218 q 425 94 338 94 z "},"c":{"ha":833,"x_min":103,"x_max":729,"o":"m 428 -17 q 262 26 335 -17 q 146 151 189 69 q 103 344 103 232 q 146 538 103 457 q 263 663 189 619 q 428 706 338 706 q 632 642 556 706 q 729 471 708 578 l 610 471 q 546 562 593 528 q 426 596 499 596 q 326 568 374 596 q 250 485 279 540 q 221 344 221 429 q 250 203 221 260 q 326 119 279 147 q 426 92 374 92 q 548 126 503 92 q 610 218 593 161 l 729 218 q 626 46 703 108 q 428 -17 549 -17 z "},"ć":{"ha":833,"x_min":103,"x_max":729,"o":"m 428 -17 q 262 26 335 -17 q 146 151 189 69 q 103 344 103 232 q 146 538 103 457 q 263 663 189 619 q 428 706 338 706 q 632 642 556 706 q 729 471 708 578 l 610 471 q 546 562 593 528 q 426 596 499 596 q 326 568 374 596 q 250 485 279 540 q 221 344 221 429 q 250 203 221 260 q 326 119 279 147 q 426 92 374 92 q 548 126 503 92 q 610 218 593 161 l 729 218 q 626 46 703 108 q 428 -17 549 -17 z "},"č":{"ha":833,"x_min":103,"x_max":729,"o":"m 428 -17 q 262 26 335 -17 q 146 151 189 69 q 103 344 103 232 q 146 538 103 457 q 263 663 189 619 q 428 706 338 706 q 632 642 556 706 q 729 471 708 578 l 610 471 q 546 562 593 528 q 426 596 499 596 q 326 568 374 596 q 250 485 279 540 q 221 344 221 429 q 250 203 221 260 q 326 119 279 147 q 426 92 374 92 q 548 126 503 92 q 610 218 593 161 l 729 218 q 626 46 703 108 q 428 -17 549 -17 z "},"ç":{"ha":833,"x_min":103,"x_max":729,"o":"m 428 -17 q 262 26 335 -17 q 146 151 189 69 q 103 344 103 232 q 146 538 103 457 q 263 663 189 619 q 428 706 338 706 q 632 642 556 706 q 729 471 708 578 l 610 471 q 546 562 593 528 q 426 596 499 596 q 326 568 374 596 q 250 485 279 540 q 221 344 221 429 q 250 203 221 260 q 326 119 279 147 q 426 92 374 92 q 548 126 503 92 q 610 218 593 161 l 729 218 q 626 46 703 108 q 428 -17 549 -17 z "},"ċ":{"ha":833,"x_min":103,"x_max":729,"o":"m 428 -17 q 262 26 335 -17 q 146 151 189 69 q 103 344 103 232 q 146 538 103 457 q 263 663 189 619 q 428 706 338 706 q 632 642 556 706 q 729 471 708 578 l 610 471 q 546 562 593 528 q 426 596 499 596 q 326 568 374 596 q 250 485 279 540 q 221 344 221 429 q 250 203 221 260 q 326 119 279 147 q 426 92 374 92 q 548 126 503 92 q 610 218 593 161 l 729 218 q 626 46 703 108 q 428 -17 549 -17 z "},"d":{"ha":833,"x_min":90,"x_max":725,"o":"m 393 -17 q 237 25 306 -17 q 129 148 168 67 q 90 346 90 229 q 129 542 90 461 q 237 664 168 622 q 393 706 306 706 q 528 674 475 706 q 608 590 582 642 l 608 1000 l 725 1000 l 725 0 l 629 0 l 617 107 l 608 107 q 526 17 581 50 q 393 -17 472 -17 m 408 94 q 553 156 496 94 q 610 344 610 218 q 553 533 610 471 q 408 594 496 594 q 265 533 321 594 q 208 344 208 471 q 265 156 208 218 q 408 94 321 94 z "},"ð":{"ha":833,"x_min":82,"x_max":772,"o":"m 424 -17 q 245 32 322 -17 q 125 162 168 81 q 82 343 82 243 q 126 529 82 447 q 244 658 169 611 q 414 704 319 704 q 540 678 481 704 q 640 590 599 653 l 647 590 q 588 717 621 660 q 508 828 556 775 l 293 757 l 293 844 l 446 894 q 319 1000 394 943 l 465 1000 q 550 929 511 967 l 719 983 l 719 897 l 611 861 q 731 643 690 764 q 772 376 772 522 q 730 170 772 258 q 609 33 688 82 q 424 -17 531 -17 m 428 92 q 539 122 488 92 q 622 210 590 153 q 654 344 654 267 q 622 478 654 422 q 539 565 590 535 q 428 596 488 596 q 315 565 367 596 q 232 478 264 535 q 200 344 200 422 q 232 210 200 267 q 315 122 264 153 q 428 92 367 92 z "},"ď":{"ha":833,"x_min":22,"x_max":925,"o":"m 325 -17 q 169 25 238 -17 q 61 148 100 67 q 22 346 22 229 q 61 542 22 461 q 169 664 100 622 q 325 706 238 706 q 460 674 407 706 q 540 590 514 642 l 540 1000 l 657 1000 l 657 0 l 561 0 l 549 107 l 540 107 q 458 17 513 50 q 325 -17 404 -17 m 340 94 q 485 156 428 94 q 542 344 542 218 q 485 533 542 471 q 340 594 428 594 q 197 533 253 594 q 140 344 140 471 q 197 156 140 218 q 340 94 253 94 m 718 689 l 785 1000 l 925 1000 l 818 689 l 718 689 z "},"đ":{"ha":833,"x_min":90,"x_max":813,"o":"m 393 -17 q 237 25 306 -17 q 129 148 168 67 q 90 346 90 229 q 129 542 90 461 q 237 664 168 622 q 393 706 306 706 q 528 674 475 706 q 608 590 582 642 l 608 815 l 374 815 l 374 911 l 608 911 l 608 1000 l 725 1000 l 725 911 l 813 911 l 813 815 l 725 815 l 725 0 l 629 0 l 617 107 l 608 107 q 526 17 581 50 q 393 -17 472 -17 m 408 94 q 553 156 496 94 q 610 344 610 218 q 553 533 610 471 q 408 594 496 594 q 265 533 321 594 q 208 344 208 471 q 265 156 208 218 q 408 94 321 94 z "},"e":{"ha":833,"x_min":92,"x_max":743,"o":"m 424 -17 q 252 28 326 -17 q 135 155 178 74 q 92 344 92 236 q 134 534 92 453 q 251 660 176 615 q 426 706 326 706 q 597 660 526 706 q 706 542 668 615 q 743 383 743 468 q 742 353 743 368 q 742 318 742 338 l 207 318 q 242 191 211 242 q 322 115 274 140 q 424 90 369 90 q 543 122 500 90 q 608 211 586 154 l 724 211 q 625 49 700 115 q 424 -17 550 -17 m 424 601 q 283 553 343 601 q 208 417 222 504 l 628 417 q 566 552 622 503 q 424 601 510 601 z "},"é":{"ha":833,"x_min":92,"x_max":743,"o":"m 424 -17 q 252 28 326 -17 q 135 155 178 74 q 92 344 92 236 q 134 534 92 453 q 251 660 176 615 q 426 706 326 706 q 597 660 526 706 q 706 542 668 615 q 743 383 743 468 q 742 353 743 368 q 742 318 742 338 l 207 318 q 242 191 211 242 q 322 115 274 140 q 424 90 369 90 q 543 122 500 90 q 608 211 586 154 l 724 211 q 625 49 700 115 q 424 -17 550 -17 m 424 601 q 283 553 343 601 q 208 417 222 504 l 628 417 q 566 552 622 503 q 424 601 510 601 z "},"ĕ":{"ha":833,"x_min":92,"x_max":743,"o":"m 424 -17 q 252 28 326 -17 q 135 155 178 74 q 92 344 92 236 q 134 534 92 453 q 251 660 176 615 q 426 706 326 706 q 597 660 526 706 q 706 542 668 615 q 743 383 743 468 q 742 353 743 368 q 742 318 742 338 l 207 318 q 242 191 211 242 q 322 115 274 140 q 424 90 369 90 q 543 122 500 90 q 608 211 586 154 l 724 211 q 625 49 700 115 q 424 -17 550 -17 m 424 601 q 283 553 343 601 q 208 417 222 504 l 628 417 q 566 552 622 503 q 424 601 510 601 z "},"ě":{"ha":833,"x_min":92,"x_max":743,"o":"m 424 -17 q 252 28 326 -17 q 135 155 178 74 q 92 344 92 236 q 134 534 92 453 q 251 660 176 615 q 426 706 326 706 q 597 660 526 706 q 706 542 668 615 q 743 383 743 468 q 742 353 743 368 q 742 318 742 338 l 207 318 q 242 191 211 242 q 322 115 274 140 q 424 90 369 90 q 543 122 500 90 q 608 211 586 154 l 724 211 q 625 49 700 115 q 424 -17 550 -17 m 424 601 q 283 553 343 601 q 208 417 222 504 l 628 417 q 566 552 622 503 q 424 601 510 601 z "},"ê":{"ha":833,"x_min":92,"x_max":743,"o":"m 424 -17 q 252 28 326 -17 q 135 155 178 74 q 92 344 92 236 q 134 534 92 453 q 251 660 176 615 q 426 706 326 706 q 597 660 526 706 q 706 542 668 615 q 743 383 743 468 q 742 353 743 368 q 742 318 742 338 l 207 318 q 242 191 211 242 q 322 115 274 140 q 424 90 369 90 q 543 122 500 90 q 608 211 586 154 l 724 211 q 625 49 700 115 q 424 -17 550 -17 m 424 601 q 283 553 343 601 q 208 417 222 504 l 628 417 q 566 552 622 503 q 424 601 510 601 z "},"ë":{"ha":833,"x_min":92,"x_max":743,"o":"m 424 -17 q 252 28 326 -17 q 135 155 178 74 q 92 344 92 236 q 134 534 92 453 q 251 660 176 615 q 426 706 326 706 q 597 660 526 706 q 706 542 668 615 q 743 383 743 468 q 742 353 743 368 q 742 318 742 338 l 207 318 q 242 191 211 242 q 322 115 274 140 q 424 90 369 90 q 543 122 500 90 q 608 211 586 154 l 724 211 q 625 49 700 115 q 424 -17 550 -17 m 424 601 q 283 553 343 601 q 208 417 222 504 l 628 417 q 566 552 622 503 q 424 601 510 601 z "},"ė":{"ha":833,"x_min":92,"x_max":743,"o":"m 424 -17 q 252 28 326 -17 q 135 155 178 74 q 92 344 92 236 q 134 534 92 453 q 251 660 176 615 q 426 706 326 706 q 597 660 526 706 q 706 542 668 615 q 743 383 743 468 q 742 353 743 368 q 742 318 742 338 l 207 318 q 242 191 211 242 q 322 115 274 140 q 424 90 369 90 q 543 122 500 90 q 608 211 586 154 l 724 211 q 625 49 700 115 q 424 -17 550 -17 m 424 601 q 283 553 343 601 q 208 417 222 504 l 628 417 q 566 552 622 503 q 424 601 510 601 z "},"è":{"ha":833,"x_min":92,"x_max":743,"o":"m 424 -17 q 252 28 326 -17 q 135 155 178 74 q 92 344 92 236 q 134 534 92 453 q 251 660 176 615 q 426 706 326 706 q 597 660 526 706 q 706 542 668 615 q 743 383 743 468 q 742 353 743 368 q 742 318 742 338 l 207 318 q 242 191 211 242 q 322 115 274 140 q 424 90 369 90 q 543 122 500 90 q 608 211 586 154 l 724 211 q 625 49 700 115 q 424 -17 550 -17 m 424 601 q 283 553 343 601 q 208 417 222 504 l 628 417 q 566 552 622 503 q 424 601 510 601 z "},"ē":{"ha":833,"x_min":92,"x_max":743,"o":"m 424 -17 q 252 28 326 -17 q 135 155 178 74 q 92 344 92 236 q 134 534 92 453 q 251 660 176 615 q 426 706 326 706 q 597 660 526 706 q 706 542 668 615 q 743 383 743 468 q 742 353 743 368 q 742 318 742 338 l 207 318 q 242 191 211 242 q 322 115 274 140 q 424 90 369 90 q 543 122 500 90 q 608 211 586 154 l 724 211 q 625 49 700 115 q 424 -17 550 -17 m 424 601 q 283 553 343 601 q 208 417 222 504 l 628 417 q 566 552 622 503 q 424 601 510 601 z "},"ę":{"ha":833,"x_min":92,"x_max":743,"o":"m 424 -17 q 252 28 326 -17 q 135 155 178 74 q 92 344 92 236 q 134 534 92 453 q 251 660 176 615 q 426 706 326 706 q 597 660 526 706 q 706 542 668 615 q 743 383 743 468 q 742 353 743 368 q 742 318 742 338 l 207 318 q 242 191 211 242 q 322 115 274 140 q 424 90 369 90 q 543 122 500 90 q 608 211 586 154 l 724 211 q 625 49 700 115 q 424 -17 550 -17 m 424 601 q 283 553 343 601 q 208 417 222 504 l 628 417 q 566 552 622 503 q 424 601 510 601 z "},"ẽ":{"ha":833,"x_min":92,"x_max":743,"o":"m 424 -17 q 252 28 326 -17 q 135 155 178 74 q 92 344 92 236 q 134 534 92 453 q 251 660 176 615 q 426 706 326 706 q 597 660 526 706 q 706 542 668 615 q 743 383 743 468 q 742 353 743 368 q 742 318 742 338 l 207 318 q 242 191 211 242 q 322 115 274 140 q 424 90 369 90 q 543 122 500 90 q 608 211 586 154 l 724 211 q 625 49 700 115 q 424 -17 550 -17 m 424 601 q 283 553 343 601 q 208 417 222 504 l 628 417 q 566 552 622 503 q 424 601 510 601 z "},"ə":{"ha":833,"x_min":92,"x_max":742,"o":"m 407 -17 q 236 28 307 -17 q 128 147 165 74 q 92 307 92 221 q 92 336 92 321 q 93 371 92 351 l 626 371 q 591 498 622 447 q 512 574 560 549 q 410 599 464 599 q 290 567 333 599 q 225 478 247 535 l 110 478 q 208 640 133 574 q 410 706 283 706 q 581 660 507 706 q 699 534 656 615 q 742 344 742 453 q 699 155 742 236 q 582 28 657 74 q 407 -17 507 -17 m 410 88 q 551 136 490 88 q 625 272 611 185 l 206 272 q 267 137 211 186 q 410 88 324 88 z "},"f":{"ha":833,"x_min":128,"x_max":682,"o":"m 128 -306 l 128 -199 l 213 -199 q 288 -178 265 -199 q 310 -104 310 -157 l 310 589 l 139 589 l 139 689 l 310 689 l 310 799 q 361 953 310 906 q 517 1000 413 1000 l 682 1000 l 682 894 l 524 894 q 449 873 472 894 q 426 799 426 851 l 426 689 l 682 689 l 682 589 l 426 589 l 426 -104 q 375 -258 426 -211 q 221 -306 324 -306 l 128 -306 z "},"g":{"ha":833,"x_min":86,"x_max":765,"o":"m 404 203 q 275 229 332 203 l 228 172 q 220 131 213 151 q 260 111 228 111 l 442 111 q 642 63 565 111 q 718 -89 718 15 q 686 -204 718 -151 q 585 -290 654 -257 q 406 -322 517 -322 q 174 -268 261 -322 q 86 -103 86 -214 q 106 -28 86 -62 q 157 32 126 6 q 108 107 117 57 q 138 206 99 157 l 200 283 q 133 454 133 353 q 165 578 133 521 q 258 671 197 636 q 404 706 318 706 q 507 689 460 706 l 765 689 l 765 601 l 636 597 l 636 588 q 672 454 672 528 q 641 330 672 388 q 549 238 610 272 q 404 203 489 203 m 404 303 q 516 343 472 303 q 560 454 560 383 q 516 565 560 525 q 404 604 472 604 q 290 565 335 604 q 246 454 246 525 q 290 343 246 383 q 404 303 335 303 m 201 -99 q 258 -190 201 -160 q 406 -221 315 -221 q 548 -186 493 -221 q 603 -93 603 -151 q 564 -16 603 -47 q 421 15 525 15 l 264 15 q 201 -99 201 -31 z "},"ğ":{"ha":833,"x_min":86,"x_max":765,"o":"m 404 203 q 275 229 332 203 l 228 172 q 220 131 213 151 q 260 111 228 111 l 442 111 q 642 63 565 111 q 718 -89 718 15 q 686 -204 718 -151 q 585 -290 654 -257 q 406 -322 517 -322 q 174 -268 261 -322 q 86 -103 86 -214 q 106 -28 86 -62 q 157 32 126 6 q 108 107 117 57 q 138 206 99 157 l 200 283 q 133 454 133 353 q 165 578 133 521 q 258 671 197 636 q 404 706 318 706 q 507 689 460 706 l 765 689 l 765 601 l 636 597 l 636 588 q 672 454 672 528 q 641 330 672 388 q 549 238 610 272 q 404 203 489 203 m 404 303 q 516 343 472 303 q 560 454 560 383 q 516 565 560 525 q 404 604 472 604 q 290 565 335 604 q 246 454 246 525 q 290 343 246 383 q 404 303 335 303 m 201 -99 q 258 -190 201 -160 q 406 -221 315 -221 q 548 -186 493 -221 q 603 -93 603 -151 q 564 -16 603 -47 q 421 15 525 15 l 264 15 q 201 -99 201 -31 z "},"ģ":{"ha":833,"x_min":86,"x_max":765,"o":"m 404 203 q 275 229 332 203 l 228 172 q 220 131 213 151 q 260 111 228 111 l 442 111 q 642 63 565 111 q 718 -89 718 15 q 686 -204 718 -151 q 585 -290 654 -257 q 406 -322 517 -322 q 174 -268 261 -322 q 86 -103 86 -214 q 106 -28 86 -62 q 157 32 126 6 q 108 107 117 57 q 138 206 99 157 l 200 283 q 133 454 133 353 q 165 578 133 521 q 258 671 197 636 q 404 706 318 706 q 507 689 460 706 l 765 689 l 765 601 l 636 597 l 636 588 q 672 454 672 528 q 641 330 672 388 q 549 238 610 272 q 404 203 489 203 m 404 303 q 516 343 472 303 q 560 454 560 383 q 516 565 560 525 q 404 604 472 604 q 290 565 335 604 q 246 454 246 525 q 290 343 246 383 q 404 303 335 303 m 201 -99 q 258 -190 201 -160 q 406 -221 315 -221 q 548 -186 493 -221 q 603 -93 603 -151 q 564 -16 603 -47 q 421 15 525 15 l 264 15 q 201 -99 201 -31 m 321 783 l 446 1050 l 550 1050 l 471 783 l 321 783 z "},"ġ":{"ha":833,"x_min":86,"x_max":765,"o":"m 404 203 q 275 229 332 203 l 228 172 q 220 131 213 151 q 260 111 228 111 l 442 111 q 642 63 565 111 q 718 -89 718 15 q 686 -204 718 -151 q 585 -290 654 -257 q 406 -322 517 -322 q 174 -268 261 -322 q 86 -103 86 -214 q 106 -28 86 -62 q 157 32 126 6 q 108 107 117 57 q 138 206 99 157 l 200 283 q 133 454 133 353 q 165 578 133 521 q 258 671 197 636 q 404 706 318 706 q 507 689 460 706 l 765 689 l 765 601 l 636 597 l 636 588 q 672 454 672 528 q 641 330 672 388 q 549 238 610 272 q 404 203 489 203 m 404 303 q 516 343 472 303 q 560 454 560 383 q 516 565 560 525 q 404 604 472 604 q 290 565 335 604 q 246 454 246 525 q 290 343 246 383 q 404 303 335 303 m 201 -99 q 258 -190 201 -160 q 406 -221 315 -221 q 548 -186 493 -221 q 603 -93 603 -151 q 564 -16 603 -47 q 421 15 525 15 l 264 15 q 201 -99 201 -31 z "},"h":{"ha":833,"x_min":115,"x_max":722,"o":"m 115 0 l 115 1000 l 232 1000 l 232 585 q 324 672 260 638 q 464 706 388 706 q 656 629 590 706 q 722 415 722 553 l 722 0 l 606 0 l 606 400 q 560 544 606 493 q 435 596 515 596 q 333 571 379 596 q 260 497 288 546 q 232 378 232 449 l 232 0 l 115 0 z "},"i":{"ha":833,"x_min":139,"x_max":694,"o":"m 408 811 q 339 839 367 811 q 311 906 311 867 q 339 973 311 946 q 408 1000 367 1000 q 477 973 449 1000 q 506 906 506 946 q 477 839 506 867 q 408 811 449 811 m 139 0 l 139 100 l 358 100 l 358 554 q 324 589 358 589 l 163 589 l 163 689 l 351 689 q 475 565 475 689 l 475 100 l 694 100 l 694 0 l 139 0 z "},"ı":{"ha":833,"x_min":139,"x_max":694,"o":"m 139 0 l 139 100 l 358 100 l 358 554 q 324 589 358 589 l 163 589 l 163 689 l 351 689 q 475 565 475 689 l 475 100 l 694 100 l 694 0 l 139 0 z "},"í":{"ha":833,"x_min":139,"x_max":694,"o":"m 139 0 l 139 100 l 358 100 l 358 554 q 324 589 358 589 l 163 589 l 163 689 l 351 689 q 475 565 475 689 l 475 100 l 694 100 l 694 0 l 139 0 z "},"ĭ":{"ha":833,"x_min":139,"x_max":694,"o":"m 139 0 l 139 100 l 358 100 l 358 554 q 324 589 358 589 l 163 589 l 163 689 l 351 689 q 475 565 475 689 l 475 100 l 694 100 l 694 0 l 139 0 z "},"î":{"ha":833,"x_min":139,"x_max":694,"o":"m 139 0 l 139 100 l 358 100 l 358 554 q 324 589 358 589 l 163 589 l 163 689 l 351 689 q 475 565 475 689 l 475 100 l 694 100 l 694 0 l 139 0 z "},"ï":{"ha":833,"x_min":139,"x_max":694,"o":"m 139 0 l 139 100 l 358 100 l 358 554 q 324 589 358 589 l 163 589 l 163 689 l 351 689 q 475 565 475 689 l 475 100 l 694 100 l 694 0 l 139 0 z "},"ì":{"ha":833,"x_min":139,"x_max":694,"o":"m 139 0 l 139 100 l 358 100 l 358 554 q 324 589 358 589 l 163 589 l 163 689 l 351 689 q 475 565 475 689 l 475 100 l 694 100 l 694 0 l 139 0 z "},"ī":{"ha":833,"x_min":139,"x_max":694,"o":"m 139 0 l 139 100 l 358 100 l 358 554 q 324 589 358 589 l 163 589 l 163 689 l 351 689 q 475 565 475 689 l 475 100 l 694 100 l 694 0 l 139 0 z "},"į":{"ha":833,"x_min":139,"x_max":700,"o":"m 139 0 l 139 100 l 358 100 l 358 554 q 324 589 358 589 l 163 589 l 163 689 l 351 689 q 475 565 475 689 l 475 100 l 694 100 l 694 0 l 139 0 z "},"ĩ":{"ha":833,"x_min":139,"x_max":694,"o":"m 139 0 l 139 100 l 358 100 l 358 554 q 324 589 358 589 l 163 589 l 163 689 l 351 689 q 475 565 475 689 l 475 100 l 694 100 l 694 0 l 139 0 z "},"j":{"ha":833,"x_min":85,"x_max":542,"o":"m 444 811 q 376 839 404 811 q 347 906 347 867 q 376 973 347 946 q 444 1000 404 1000 q 514 973 486 1000 q 542 906 542 946 q 514 839 542 867 q 444 811 486 811 m 85 -306 l 85 -206 l 360 -206 q 394 -169 394 -206 l 394 554 q 360 589 394 589 l 193 589 l 193 689 l 388 689 q 511 565 511 689 l 511 -182 q 388 -306 511 -306 l 85 -306 z "},"k":{"ha":833,"x_min":154,"x_max":744,"o":"m 154 0 l 154 1000 l 271 1000 l 271 397 l 558 689 l 707 689 l 400 382 l 400 374 l 744 0 l 600 0 l 271 358 l 271 0 l 154 0 z "},"ķ":{"ha":833,"x_min":154,"x_max":744,"o":"m 154 0 l 154 1000 l 271 1000 l 271 397 l 558 689 l 707 689 l 400 382 l 400 374 l 744 0 l 600 0 l 271 358 l 271 0 l 154 0 m 272 -367 l 354 -94 l 504 -94 l 381 -367 l 272 -367 z "},"l":{"ha":833,"x_min":104,"x_max":690,"o":"m 104 0 l 104 100 l 339 100 l 339 865 q 304 900 339 900 l 129 900 l 129 1000 l 332 1000 q 424 968 392 1000 q 456 876 456 936 l 456 100 l 690 100 l 690 0 l 104 0 z "},"ĺ":{"ha":833,"x_min":104,"x_max":690,"o":"m 104 0 l 104 100 l 339 100 l 339 865 q 304 900 339 900 l 129 900 l 129 1000 l 332 1000 q 424 968 392 1000 q 456 876 456 936 l 456 100 l 690 100 l 690 0 l 104 0 z "},"ľ":{"ha":833,"x_min":104,"x_max":800,"o":"m 104 0 l 104 100 l 339 100 l 339 865 q 304 900 339 900 l 129 900 l 129 1000 l 332 1000 q 424 968 392 1000 q 456 876 456 936 l 456 100 l 690 100 l 690 0 l 104 0 m 593 686 l 660 997 l 800 997 l 693 686 l 593 686 z "},"ļ":{"ha":833,"x_min":104,"x_max":690,"o":"m 104 0 l 104 100 l 339 100 l 339 865 q 304 900 339 900 l 129 900 l 129 1000 l 332 1000 q 424 968 392 1000 q 456 876 456 936 l 456 100 l 690 100 l 690 0 l 104 0 m 268 -367 l 350 -94 l 500 -94 l 376 -367 l 268 -367 z "},"ŀ":{"ha":833,"x_min":104,"x_max":918,"o":"m 104 0 l 104 100 l 339 100 l 339 865 q 304 900 339 900 l 129 900 l 129 1000 l 332 1000 q 424 968 392 1000 q 456 876 456 936 l 456 100 l 690 100 l 690 0 l 104 0 z "},"ł":{"ha":833,"x_min":104,"x_max":690,"o":"m 104 0 l 104 100 l 339 100 l 339 438 l 192 374 l 192 476 l 339 540 l 339 865 q 304 900 339 900 l 129 900 l 129 1000 l 332 1000 q 424 968 392 1000 q 456 876 456 936 l 456 590 l 601 653 l 601 551 l 456 488 l 456 100 l 690 100 l 690 0 l 104 0 z "},"m":{"ha":833,"x_min":51,"x_max":774,"o":"m 51 0 l 51 689 l 147 689 l 160 608 l 167 608 q 222 678 185 650 q 311 706 258 706 q 401 680 364 706 q 454 608 438 654 l 460 608 q 518 678 478 650 q 615 706 558 706 q 734 652 694 706 q 774 510 774 599 l 774 0 l 660 0 l 660 492 q 640 571 660 542 q 575 600 619 600 q 500 565 529 600 q 471 467 471 531 l 471 0 l 356 0 l 356 492 q 336 571 356 542 q 272 600 317 600 q 197 565 226 600 q 167 467 167 531 l 167 0 l 51 0 z "},"n":{"ha":833,"x_min":122,"x_max":717,"o":"m 122 0 l 122 689 l 219 689 l 232 585 l 239 585 q 326 670 267 635 q 464 706 386 706 q 653 631 590 706 q 717 414 717 556 l 717 0 l 600 0 l 600 400 q 560 544 600 492 q 435 596 519 596 q 296 540 353 596 q 239 378 239 483 l 239 0 l 122 0 z "},"ń":{"ha":833,"x_min":122,"x_max":717,"o":"m 122 0 l 122 689 l 219 689 l 232 585 l 239 585 q 326 670 267 635 q 464 706 386 706 q 653 631 590 706 q 717 414 717 556 l 717 0 l 600 0 l 600 400 q 560 544 600 492 q 435 596 519 596 q 296 540 353 596 q 239 378 239 483 l 239 0 l 122 0 z "},"ň":{"ha":833,"x_min":122,"x_max":717,"o":"m 122 0 l 122 689 l 219 689 l 232 585 l 239 585 q 326 670 267 635 q 464 706 386 706 q 653 631 590 706 q 717 414 717 556 l 717 0 l 600 0 l 600 400 q 560 544 600 492 q 435 596 519 596 q 296 540 353 596 q 239 378 239 483 l 239 0 l 122 0 z "},"ņ":{"ha":833,"x_min":122,"x_max":717,"o":"m 122 0 l 122 689 l 219 689 l 232 585 l 239 585 q 326 670 267 635 q 464 706 386 706 q 653 631 590 706 q 717 414 717 556 l 717 0 l 600 0 l 600 400 q 560 544 600 492 q 435 596 519 596 q 296 540 353 596 q 239 378 239 483 l 239 0 l 122 0 m 271 -367 l 353 -94 l 503 -94 l 379 -367 l 271 -367 z "},"ñ":{"ha":833,"x_min":122,"x_max":717,"o":"m 122 0 l 122 689 l 219 689 l 232 585 l 239 585 q 326 670 267 635 q 464 706 386 706 q 653 631 590 706 q 717 414 717 556 l 717 0 l 600 0 l 600 400 q 560 544 600 492 q 435 596 519 596 q 296 540 353 596 q 239 378 239 483 l 239 0 l 122 0 z "},"o":{"ha":833,"x_min":83,"x_max":750,"o":"m 417 -17 q 244 28 319 -17 q 126 153 169 72 q 83 344 83 235 q 126 535 83 454 q 244 661 169 617 q 417 706 319 706 q 589 661 514 706 q 707 535 664 617 q 750 344 750 454 q 707 153 750 235 q 589 28 664 72 q 417 -17 514 -17 m 417 94 q 525 121 476 94 q 602 203 574 147 q 631 344 631 258 q 602 486 631 431 q 525 568 574 542 q 417 594 476 594 q 310 568 358 594 q 232 486 261 542 q 203 344 203 431 q 265 155 203 215 q 417 94 328 94 z "},"ó":{"ha":833,"x_min":83,"x_max":750,"o":"m 417 -17 q 244 28 319 -17 q 126 153 169 72 q 83 344 83 235 q 126 535 83 454 q 244 661 169 617 q 417 706 319 706 q 589 661 514 706 q 707 535 664 617 q 750 344 750 454 q 707 153 750 235 q 589 28 664 72 q 417 -17 514 -17 m 417 94 q 525 121 476 94 q 602 203 574 147 q 631 344 631 258 q 602 486 631 431 q 525 568 574 542 q 417 594 476 594 q 310 568 358 594 q 232 486 261 542 q 203 344 203 431 q 265 155 203 215 q 417 94 328 94 z "},"ŏ":{"ha":833,"x_min":83,"x_max":750,"o":"m 417 -17 q 244 28 319 -17 q 126 153 169 72 q 83 344 83 235 q 126 535 83 454 q 244 661 169 617 q 417 706 319 706 q 589 661 514 706 q 707 535 664 617 q 750 344 750 454 q 707 153 750 235 q 589 28 664 72 q 417 -17 514 -17 m 417 94 q 525 121 476 94 q 602 203 574 147 q 631 344 631 258 q 602 486 631 431 q 525 568 574 542 q 417 594 476 594 q 310 568 358 594 q 232 486 261 542 q 203 344 203 431 q 265 155 203 215 q 417 94 328 94 z "},"ô":{"ha":833,"x_min":83,"x_max":750,"o":"m 417 -17 q 244 28 319 -17 q 126 153 169 72 q 83 344 83 235 q 126 535 83 454 q 244 661 169 617 q 417 706 319 706 q 589 661 514 706 q 707 535 664 617 q 750 344 750 454 q 707 153 750 235 q 589 28 664 72 q 417 -17 514 -17 m 417 94 q 525 121 476 94 q 602 203 574 147 q 631 344 631 258 q 602 486 631 431 q 525 568 574 542 q 417 594 476 594 q 310 568 358 594 q 232 486 261 542 q 203 344 203 431 q 265 155 203 215 q 417 94 328 94 z "},"ö":{"ha":833,"x_min":83,"x_max":750,"o":"m 417 -17 q 244 28 319 -17 q 126 153 169 72 q 83 344 83 235 q 126 535 83 454 q 244 661 169 617 q 417 706 319 706 q 589 661 514 706 q 707 535 664 617 q 750 344 750 454 q 707 153 750 235 q 589 28 664 72 q 417 -17 514 -17 m 417 94 q 525 121 476 94 q 602 203 574 147 q 631 344 631 258 q 602 486 631 431 q 525 568 574 542 q 417 594 476 594 q 310 568 358 594 q 232 486 261 542 q 203 344 203 431 q 265 155 203 215 q 417 94 328 94 z "},"ò":{"ha":833,"x_min":83,"x_max":750,"o":"m 417 -17 q 244 28 319 -17 q 126 153 169 72 q 83 344 83 235 q 126 535 83 454 q 244 661 169 617 q 417 706 319 706 q 589 661 514 706 q 707 535 664 617 q 750 344 750 454 q 707 153 750 235 q 589 28 664 72 q 417 -17 514 -17 m 417 94 q 525 121 476 94 q 602 203 574 147 q 631 344 631 258 q 602 486 631 431 q 525 568 574 542 q 417 594 476 594 q 310 568 358 594 q 232 486 261 542 q 203 344 203 431 q 265 155 203 215 q 417 94 328 94 z "},"ő":{"ha":833,"x_min":83,"x_max":750,"o":"m 417 -17 q 244 28 319 -17 q 126 153 169 72 q 83 344 83 235 q 126 535 83 454 q 244 661 169 617 q 417 706 319 706 q 589 661 514 706 q 707 535 664 617 q 750 344 750 454 q 707 153 750 235 q 589 28 664 72 q 417 -17 514 -17 m 417 94 q 525 121 476 94 q 602 203 574 147 q 631 344 631 258 q 602 486 631 431 q 525 568 574 542 q 417 594 476 594 q 310 568 358 594 q 232 486 261 542 q 203 344 203 431 q 265 155 203 215 q 417 94 328 94 z "},"ō":{"ha":833,"x_min":83,"x_max":750,"o":"m 417 -17 q 244 28 319 -17 q 126 153 169 72 q 83 344 83 235 q 126 535 83 454 q 244 661 169 617 q 417 706 319 706 q 589 661 514 706 q 707 535 664 617 q 750 344 750 454 q 707 153 750 235 q 589 28 664 72 q 417 -17 514 -17 m 417 94 q 525 121 476 94 q 602 203 574 147 q 631 344 631 258 q 602 486 631 431 q 525 568 574 542 q 417 594 476 594 q 310 568 358 594 q 232 486 261 542 q 203 344 203 431 q 265 155 203 215 q 417 94 328 94 z "},"ø":{"ha":833,"x_min":61,"x_max":769,"o":"m 61 -28 l 163 99 q 104 207 125 144 q 83 344 83 269 q 126 535 83 454 q 244 661 169 617 q 417 706 319 706 q 601 653 522 706 l 653 717 l 769 717 l 671 592 q 729 482 708 544 q 750 344 750 419 q 707 153 750 235 q 589 28 664 72 q 417 -17 514 -17 q 231 36 311 -17 l 181 -28 l 61 -28 m 203 344 q 212 260 203 297 q 238 193 221 222 l 532 564 q 417 594 482 594 q 310 568 358 594 q 232 486 261 542 q 203 344 203 431 m 417 94 q 525 121 476 94 q 602 203 574 147 q 631 344 631 258 q 622 430 631 392 q 596 497 613 468 l 301 125 q 417 94 350 94 z "},"õ":{"ha":833,"x_min":83,"x_max":750,"o":"m 417 -17 q 244 28 319 -17 q 126 153 169 72 q 83 344 83 235 q 126 535 83 454 q 244 661 169 617 q 417 706 319 706 q 589 661 514 706 q 707 535 664 617 q 750 344 750 454 q 707 153 750 235 q 589 28 664 72 q 417 -17 514 -17 m 417 94 q 525 121 476 94 q 602 203 574 147 q 631 344 631 258 q 602 486 631 431 q 525 568 574 542 q 417 594 476 594 q 310 568 358 594 q 232 486 261 542 q 203 344 203 431 q 265 155 203 215 q 417 94 328 94 z "},"œ":{"ha":833,"x_min":32,"x_max":801,"o":"m 250 -17 q 90 81 149 -17 q 32 344 32 179 q 91 608 32 510 q 250 706 150 706 q 354 678 307 706 q 425 581 401 650 q 493 672 446 638 q 600 706 540 706 q 751 622 701 706 q 801 396 801 538 q 799 318 801 361 l 482 318 q 515 147 485 204 q 592 90 544 90 q 648 122 626 90 q 679 211 669 154 l 789 211 q 726 49 776 114 q 592 -17 675 -17 q 418 104 472 -17 q 349 15 390 47 q 250 -17 307 -17 m 593 601 q 521 553 551 601 q 483 417 490 504 l 690 417 q 662 553 689 506 q 593 601 635 601 m 260 92 q 342 153 313 92 q 372 344 372 214 q 342 536 372 475 q 260 597 313 597 q 177 536 207 597 q 147 344 147 475 q 177 153 147 214 q 260 92 207 92 z "},"p":{"ha":833,"x_min":108,"x_max":743,"o":"m 108 -306 l 108 689 l 203 689 l 217 575 l 225 575 q 310 668 251 631 q 447 706 368 706 q 598 664 531 706 q 704 541 665 622 q 743 343 743 460 q 703 147 743 228 q 595 25 664 67 q 438 -17 526 -17 q 303 17 358 -17 q 225 97 249 51 l 225 -306 l 108 -306 m 424 94 q 568 156 511 94 q 625 344 625 218 q 568 533 625 471 q 424 594 511 594 q 279 533 336 594 q 222 344 222 471 q 279 156 222 218 q 424 94 336 94 z "},"þ":{"ha":833,"x_min":108,"x_max":743,"o":"m 108 -306 l 108 1000 l 225 1000 l 225 575 q 310 668 251 631 q 447 706 368 706 q 598 664 531 706 q 704 541 665 622 q 743 343 743 460 q 703 147 743 228 q 595 25 664 67 q 438 -17 526 -17 q 303 17 358 -17 q 225 97 249 51 l 225 -306 l 108 -306 m 424 94 q 568 156 511 94 q 625 344 625 218 q 568 533 625 471 q 424 594 511 594 q 279 533 336 594 q 222 344 222 471 q 279 156 222 218 q 424 94 336 94 z "},"q":{"ha":833,"x_min":94,"x_max":729,"o":"m 613 -306 l 613 103 q 535 18 586 53 q 399 -17 485 -17 q 242 25 311 -17 q 134 147 174 67 q 94 343 94 228 q 134 541 94 460 q 241 664 174 622 q 392 706 308 706 q 529 671 474 706 q 613 583 585 636 l 621 583 l 635 689 l 729 689 l 729 -306 l 613 -306 m 414 94 q 558 156 501 94 q 615 344 615 218 q 558 533 615 471 q 414 594 501 594 q 269 533 326 594 q 213 344 213 471 q 269 156 213 218 q 414 94 326 94 z "},"r":{"ha":833,"x_min":117,"x_max":729,"o":"m 117 0 l 117 100 l 293 100 l 293 554 q 260 589 293 589 l 135 589 l 135 689 l 303 689 q 376 664 349 689 q 404 590 404 639 l 404 561 l 410 561 q 473 668 426 631 q 603 706 519 706 l 729 706 l 729 582 l 586 582 q 456 526 501 582 q 410 382 410 469 l 410 100 l 626 100 l 626 0 l 117 0 z "},"ŕ":{"ha":833,"x_min":117,"x_max":729,"o":"m 117 0 l 117 100 l 293 100 l 293 554 q 260 589 293 589 l 135 589 l 135 689 l 303 689 q 376 664 349 689 q 404 590 404 639 l 404 561 l 410 561 q 473 668 426 631 q 603 706 519 706 l 729 706 l 729 582 l 586 582 q 456 526 501 582 q 410 382 410 469 l 410 100 l 626 100 l 626 0 l 117 0 z "},"ř":{"ha":833,"x_min":117,"x_max":729,"o":"m 117 0 l 117 100 l 293 100 l 293 554 q 260 589 293 589 l 135 589 l 135 689 l 303 689 q 376 664 349 689 q 404 590 404 639 l 404 561 l 410 561 q 473 668 426 631 q 603 706 519 706 l 729 706 l 729 582 l 586 582 q 456 526 501 582 q 410 382 410 469 l 410 100 l 626 100 l 626 0 l 117 0 z "},"ŗ":{"ha":833,"x_min":117,"x_max":729,"o":"m 117 0 l 117 100 l 293 100 l 293 554 q 260 589 293 589 l 135 589 l 135 689 l 303 689 q 376 664 349 689 q 404 590 404 639 l 404 561 l 410 561 q 473 668 426 631 q 603 706 519 706 l 729 706 l 729 582 l 586 582 q 456 526 501 582 q 410 382 410 469 l 410 100 l 626 100 l 626 0 l 117 0 m 203 -367 l 285 -94 l 435 -94 l 311 -367 l 203 -367 z "},"s":{"ha":833,"x_min":119,"x_max":701,"o":"m 424 -17 q 210 45 292 -17 q 119 215 129 107 l 240 215 q 297 122 249 158 q 426 86 344 86 q 542 119 504 86 q 581 196 581 153 q 535 276 581 254 q 397 308 489 297 q 215 368 288 321 q 143 510 143 415 q 214 650 143 594 q 407 706 285 706 q 597 651 528 706 q 676 494 667 596 l 561 494 q 513 574 557 544 q 404 604 469 604 q 299 578 336 604 q 261 511 261 553 q 303 442 261 469 q 438 407 346 415 q 569 379 510 399 q 665 318 629 360 q 700 201 700 276 q 666 90 701 139 q 568 12 631 40 q 424 -17 506 -17 z "},"ś":{"ha":833,"x_min":119,"x_max":701,"o":"m 424 -17 q 210 45 292 -17 q 119 215 129 107 l 240 215 q 297 122 249 158 q 426 86 344 86 q 542 119 504 86 q 581 196 581 153 q 535 276 581 254 q 397 308 489 297 q 215 368 288 321 q 143 510 143 415 q 214 650 143 594 q 407 706 285 706 q 597 651 528 706 q 676 494 667 596 l 561 494 q 513 574 557 544 q 404 604 469 604 q 299 578 336 604 q 261 511 261 553 q 303 442 261 469 q 438 407 346 415 q 569 379 510 399 q 665 318 629 360 q 700 201 700 276 q 666 90 701 139 q 568 12 631 40 q 424 -17 506 -17 z "},"š":{"ha":833,"x_min":119,"x_max":701,"o":"m 424 -17 q 210 45 292 -17 q 119 215 129 107 l 240 215 q 297 122 249 158 q 426 86 344 86 q 542 119 504 86 q 581 196 581 153 q 535 276 581 254 q 397 308 489 297 q 215 368 288 321 q 143 510 143 415 q 214 650 143 594 q 407 706 285 706 q 597 651 528 706 q 676 494 667 596 l 561 494 q 513 574 557 544 q 404 604 469 604 q 299 578 336 604 q 261 511 261 553 q 303 442 261 469 q 438 407 346 415 q 569 379 510 399 q 665 318 629 360 q 700 201 700 276 q 666 90 701 139 q 568 12 631 40 q 424 -17 506 -17 z "},"ş":{"ha":833,"x_min":119,"x_max":701,"o":"m 424 -17 q 210 45 292 -17 q 119 215 129 107 l 240 215 q 297 122 249 158 q 426 86 344 86 q 542 119 504 86 q 581 196 581 153 q 535 276 581 254 q 397 308 489 297 q 215 368 288 321 q 143 510 143 415 q 214 650 143 594 q 407 706 285 706 q 597 651 528 706 q 676 494 667 596 l 561 494 q 513 574 557 544 q 404 604 469 604 q 299 578 336 604 q 261 511 261 553 q 303 442 261 469 q 438 407 346 415 q 569 379 510 399 q 665 318 629 360 q 700 201 700 276 q 666 90 701 139 q 568 12 631 40 q 424 -17 506 -17 z "},"ș":{"ha":833,"x_min":119,"x_max":701,"o":"m 424 -17 q 210 45 292 -17 q 119 215 129 107 l 240 215 q 297 122 249 158 q 426 86 344 86 q 542 119 504 86 q 581 196 581 153 q 535 276 581 254 q 397 308 489 297 q 215 368 288 321 q 143 510 143 415 q 214 650 143 594 q 407 706 285 706 q 597 651 528 706 q 676 494 667 596 l 561 494 q 513 574 557 544 q 404 604 469 604 q 299 578 336 604 q 261 511 261 553 q 303 442 261 469 q 438 407 346 415 q 569 379 510 399 q 665 318 629 360 q 700 201 700 276 q 666 90 701 139 q 568 12 631 40 q 424 -17 506 -17 m 268 -367 l 350 -94 l 500 -94 l 376 -367 l 268 -367 z "},"ß":{"ha":833,"x_min":90,"x_max":796,"o":"m 540 -17 q 353 49 421 -17 q 281 235 286 115 l 400 235 q 440 128 404 168 q 542 88 476 88 q 642 122 606 88 q 678 213 678 156 q 647 301 678 269 q 546 358 617 333 q 428 422 474 382 q 382 532 382 463 q 397 596 382 571 q 435 640 413 621 q 481 675 458 658 q 519 713 504 692 q 535 765 535 733 q 492 859 535 824 q 378 894 450 894 q 249 842 290 894 q 207 700 207 790 l 207 0 l 90 0 l 90 707 q 122 856 90 790 q 217 961 153 922 q 379 1000 282 1000 q 581 935 511 1000 q 650 775 650 871 q 635 697 650 728 q 597 647 619 667 q 553 611 575 626 q 515 579 531 596 q 500 539 500 563 q 526 486 500 507 q 625 440 551 465 q 753 359 710 411 q 796 221 796 307 q 765 100 796 154 q 677 15 735 46 q 540 -17 619 -17 z "},"t":{"ha":833,"x_min":111,"x_max":678,"o":"m 489 0 q 340 46 394 0 q 286 211 286 92 l 286 589 l 111 589 l 111 689 l 215 689 q 297 758 286 689 l 317 865 l 403 865 l 403 689 l 678 689 l 678 589 l 403 589 l 403 211 q 430 129 403 153 q 524 106 457 106 l 678 106 l 678 0 l 489 0 z "},"ť":{"ha":833,"x_min":111,"x_max":733,"o":"m 489 0 q 340 46 394 0 q 286 211 286 92 l 286 589 l 111 589 l 111 689 l 215 689 q 297 758 286 689 l 317 865 l 403 865 l 403 689 l 678 689 l 678 589 l 403 589 l 403 211 q 430 129 403 153 q 524 106 457 106 l 678 106 l 678 0 l 489 0 m 526 828 l 593 1139 l 733 1139 l 626 828 l 526 828 z "},"ţ":{"ha":833,"x_min":111,"x_max":678,"o":"m 489 0 q 340 46 394 0 q 286 211 286 92 l 286 589 l 111 589 l 111 689 l 215 689 q 297 758 286 689 l 317 865 l 403 865 l 403 689 l 678 689 l 678 589 l 403 589 l 403 211 q 430 129 403 153 q 524 106 457 106 l 678 106 l 678 0 l 489 0 z "},"ț":{"ha":833,"x_min":111,"x_max":678,"o":"m 489 0 q 340 46 394 0 q 286 211 286 92 l 286 589 l 111 589 l 111 689 l 215 689 q 297 758 286 689 l 317 865 l 403 865 l 403 689 l 678 689 l 678 589 l 403 589 l 403 211 q 430 129 403 153 q 524 106 457 106 l 678 106 l 678 0 l 489 0 m 304 -367 l 386 -94 l 536 -94 l 413 -367 l 304 -367 z "},"u":{"ha":833,"x_min":115,"x_max":711,"o":"m 368 -17 q 179 58 243 -17 q 115 275 115 133 l 115 689 l 232 689 l 232 289 q 273 145 232 197 q 397 93 314 93 q 538 149 481 93 q 594 311 594 206 l 594 689 l 711 689 l 711 0 l 614 0 l 601 104 l 594 104 q 507 19 567 54 q 368 -17 447 -17 z "},"ú":{"ha":833,"x_min":115,"x_max":711,"o":"m 368 -17 q 179 58 243 -17 q 115 275 115 133 l 115 689 l 232 689 l 232 289 q 273 145 232 197 q 397 93 314 93 q 538 149 481 93 q 594 311 594 206 l 594 689 l 711 689 l 711 0 l 614 0 l 601 104 l 594 104 q 507 19 567 54 q 368 -17 447 -17 z "},"ŭ":{"ha":833,"x_min":115,"x_max":711,"o":"m 368 -17 q 179 58 243 -17 q 115 275 115 133 l 115 689 l 232 689 l 232 289 q 273 145 232 197 q 397 93 314 93 q 538 149 481 93 q 594 311 594 206 l 594 689 l 711 689 l 711 0 l 614 0 l 601 104 l 594 104 q 507 19 567 54 q 368 -17 447 -17 z "},"û":{"ha":833,"x_min":115,"x_max":711,"o":"m 368 -17 q 179 58 243 -17 q 115 275 115 133 l 115 689 l 232 689 l 232 289 q 273 145 232 197 q 397 93 314 93 q 538 149 481 93 q 594 311 594 206 l 594 689 l 711 689 l 711 0 l 614 0 l 601 104 l 594 104 q 507 19 567 54 q 368 -17 447 -17 z "},"ü":{"ha":833,"x_min":115,"x_max":711,"o":"m 368 -17 q 179 58 243 -17 q 115 275 115 133 l 115 689 l 232 689 l 232 289 q 273 145 232 197 q 397 93 314 93 q 538 149 481 93 q 594 311 594 206 l 594 689 l 711 689 l 711 0 l 614 0 l 601 104 l 594 104 q 507 19 567 54 q 368 -17 447 -17 z "},"ù":{"ha":833,"x_min":115,"x_max":711,"o":"m 368 -17 q 179 58 243 -17 q 115 275 115 133 l 115 689 l 232 689 l 232 289 q 273 145 232 197 q 397 93 314 93 q 538 149 481 93 q 594 311 594 206 l 594 689 l 711 689 l 711 0 l 614 0 l 601 104 l 594 104 q 507 19 567 54 q 368 -17 447 -17 z "},"ű":{"ha":833,"x_min":115,"x_max":711,"o":"m 368 -17 q 179 58 243 -17 q 115 275 115 133 l 115 689 l 232 689 l 232 289 q 273 145 232 197 q 397 93 314 93 q 538 149 481 93 q 594 311 594 206 l 594 689 l 711 689 l 711 0 l 614 0 l 601 104 l 594 104 q 507 19 567 54 q 368 -17 447 -17 z "},"ū":{"ha":833,"x_min":115,"x_max":711,"o":"m 368 -17 q 179 58 243 -17 q 115 275 115 133 l 115 689 l 232 689 l 232 289 q 273 145 232 197 q 397 93 314 93 q 538 149 481 93 q 594 311 594 206 l 594 689 l 711 689 l 711 0 l 614 0 l 601 104 l 594 104 q 507 19 567 54 q 368 -17 447 -17 z "},"ų":{"ha":833,"x_min":115,"x_max":717,"o":"m 368 -17 q 179 58 243 -17 q 115 275 115 133 l 115 689 l 232 689 l 232 289 q 273 145 232 197 q 397 93 314 93 q 538 149 481 93 q 594 311 594 206 l 594 689 l 711 689 l 711 0 l 614 0 l 601 104 l 594 104 q 507 19 567 54 q 368 -17 447 -17 z "},"ů":{"ha":833,"x_min":115,"x_max":711,"o":"m 368 -17 q 179 58 243 -17 q 115 275 115 133 l 115 689 l 232 689 l 232 289 q 273 145 232 197 q 397 93 314 93 q 538 149 481 93 q 594 311 594 206 l 594 689 l 711 689 l 711 0 l 614 0 l 601 104 l 594 104 q 507 19 567 54 q 368 -17 447 -17 z "},"ũ":{"ha":833,"x_min":115,"x_max":711,"o":"m 368 -17 q 179 58 243 -17 q 115 275 115 133 l 115 689 l 232 689 l 232 289 q 273 145 232 197 q 397 93 314 93 q 538 149 481 93 q 594 311 594 206 l 594 689 l 711 689 l 711 0 l 614 0 l 601 104 l 594 104 q 507 19 567 54 q 368 -17 447 -17 z "},"v":{"ha":833,"x_min":46,"x_max":788,"o":"m 349 0 l 46 689 l 179 689 l 417 128 l 656 689 l 788 689 l 483 0 l 349 0 z "},"w":{"ha":833,"x_min":19,"x_max":815,"o":"m 172 0 l 19 689 l 135 689 l 233 174 l 351 689 l 482 689 l 600 174 l 699 689 l 815 689 l 661 0 l 542 0 l 417 535 l 292 0 l 172 0 z "},"ẃ":{"ha":833,"x_min":19,"x_max":815,"o":"m 172 0 l 19 689 l 135 689 l 233 174 l 351 689 l 482 689 l 600 174 l 699 689 l 815 689 l 661 0 l 542 0 l 417 535 l 292 0 l 172 0 z "},"ŵ":{"ha":833,"x_min":19,"x_max":815,"o":"m 172 0 l 19 689 l 135 689 l 233 174 l 351 689 l 482 689 l 600 174 l 699 689 l 815 689 l 661 0 l 542 0 l 417 535 l 292 0 l 172 0 z "},"ẅ":{"ha":833,"x_min":19,"x_max":815,"o":"m 172 0 l 19 689 l 135 689 l 233 174 l 351 689 l 482 689 l 600 174 l 699 689 l 815 689 l 661 0 l 542 0 l 417 535 l 292 0 l 172 0 z "},"ẁ":{"ha":833,"x_min":19,"x_max":815,"o":"m 172 0 l 19 689 l 135 689 l 233 174 l 351 689 l 482 689 l 600 174 l 699 689 l 815 689 l 661 0 l 542 0 l 417 535 l 292 0 l 172 0 z "},"x":{"ha":833,"x_min":96,"x_max":738,"o":"m 101 0 l 336 344 l 96 689 l 225 689 l 417 411 l 608 689 l 738 689 l 497 344 l 732 0 l 603 0 l 417 279 l 229 0 l 101 0 z "},"y":{"ha":833,"x_min":64,"x_max":778,"o":"m 207 -306 l 376 67 l 336 67 l 64 689 l 190 689 l 417 156 l 656 689 l 778 689 l 329 -306 l 207 -306 z "},"ý":{"ha":833,"x_min":64,"x_max":778,"o":"m 207 -306 l 376 67 l 336 67 l 64 689 l 190 689 l 417 156 l 656 689 l 778 689 l 329 -306 l 207 -306 z "},"ŷ":{"ha":833,"x_min":64,"x_max":778,"o":"m 207 -306 l 376 67 l 336 67 l 64 689 l 190 689 l 417 156 l 656 689 l 778 689 l 329 -306 l 207 -306 z "},"ÿ":{"ha":833,"x_min":64,"x_max":778,"o":"m 207 -306 l 376 67 l 336 67 l 64 689 l 190 689 l 417 156 l 656 689 l 778 689 l 329 -306 l 207 -306 z "},"ỳ":{"ha":833,"x_min":64,"x_max":778,"o":"m 207 -306 l 376 67 l 336 67 l 64 689 l 190 689 l 417 156 l 656 689 l 778 689 l 329 -306 l 207 -306 z "},"ỹ":{"ha":833,"x_min":64,"x_max":778,"o":"m 207 -306 l 376 67 l 336 67 l 64 689 l 190 689 l 417 156 l 656 689 l 778 689 l 329 -306 l 207 -306 z "},"z":{"ha":833,"x_min":142,"x_max":692,"o":"m 142 0 l 142 107 l 547 581 l 149 581 l 149 689 l 685 689 l 685 582 l 278 108 l 692 108 l 692 0 l 142 0 z "},"ź":{"ha":833,"x_min":142,"x_max":692,"o":"m 142 0 l 142 107 l 547 581 l 149 581 l 149 689 l 685 689 l 685 582 l 278 108 l 692 108 l 692 0 l 142 0 z "},"ž":{"ha":833,"x_min":142,"x_max":692,"o":"m 142 0 l 142 107 l 547 581 l 149 581 l 149 689 l 685 689 l 685 582 l 278 108 l 692 108 l 692 0 l 142 0 z "},"ż":{"ha":833,"x_min":142,"x_max":692,"o":"m 142 0 l 142 107 l 547 581 l 149 581 l 149 689 l 685 689 l 685 582 l 278 108 l 692 108 l 692 0 l 142 0 z "},"ª":{"ha":833,"x_min":172,"x_max":653,"o":"m 367 403 q 220 453 268 403 q 172 572 172 504 q 233 699 172 654 q 399 744 293 744 l 546 744 l 546 756 q 421 890 546 890 q 337 868 371 890 q 292 799 303 846 l 185 799 q 262 933 196 886 q 421 981 328 981 q 597 919 542 981 q 653 756 653 858 l 653 417 l 561 417 l 553 497 l 544 497 q 481 431 521 458 q 367 403 440 403 m 388 493 q 474 517 438 493 q 528 581 510 542 q 546 665 546 621 l 408 665 q 313 642 342 665 q 283 578 283 618 q 311 516 283 539 q 388 493 339 493 z "},"º":{"ha":833,"x_min":146,"x_max":688,"o":"m 417 403 q 276 439 338 403 q 181 540 215 475 q 146 692 146 604 q 181 844 146 779 q 278 945 217 910 q 417 981 339 981 q 556 945 496 981 q 652 844 617 910 q 688 692 688 779 q 652 540 688 604 q 556 439 617 475 q 417 403 494 403 m 417 503 q 532 549 483 503 q 581 692 581 596 q 532 835 581 789 q 417 881 483 881 q 301 835 350 881 q 253 692 253 789 q 301 549 253 596 q 417 503 350 503 z "},"π":{"ha":833,"x_min":40,"x_max":793,"o":"m 174 0 l 174 589 l 40 589 l 40 689 l 793 689 l 793 589 l 660 589 l 660 0 l 543 0 l 543 589 l 290 589 l 290 0 l 174 0 z "},"¹":{"ha":833,"x_min":219,"x_max":610,"o":"m 219 389 l 219 474 l 363 474 l 363 861 l 226 838 l 226 914 l 400 972 l 457 972 l 457 474 l 610 474 l 610 389 l 219 389 z "},"²":{"ha":833,"x_min":225,"x_max":622,"o":"m 225 389 l 225 464 q 374 588 310 531 q 474 697 438 644 q 510 803 510 750 q 486 872 510 846 q 421 897 463 897 q 344 866 371 897 q 318 793 318 835 l 226 793 q 283 934 228 886 q 421 982 339 982 q 558 934 510 982 q 607 806 607 886 q 570 679 607 739 q 477 567 533 619 q 364 469 421 514 l 622 469 l 622 389 l 225 389 z "},"³":{"ha":833,"x_min":211,"x_max":625,"o":"m 419 379 q 274 428 333 379 q 211 568 214 478 l 304 568 q 338 494 307 524 q 421 465 368 465 q 502 491 472 465 q 532 561 532 517 q 495 634 532 611 q 406 657 458 657 l 354 657 l 354 739 l 399 739 q 507 819 507 739 q 483 875 507 854 q 419 896 460 896 q 350 872 376 896 q 321 813 324 849 l 228 813 q 285 936 232 890 q 419 982 338 982 q 556 938 510 982 q 601 829 601 894 q 576 755 601 786 q 515 711 550 724 l 515 706 q 594 655 564 692 q 625 558 625 618 q 571 432 625 485 q 419 379 517 379 z "},"⁴":{"ha":833,"x_min":203,"x_max":653,"o":"m 479 389 l 479 511 l 203 511 l 203 588 l 461 972 l 574 972 l 574 597 l 653 597 l 653 511 l 574 511 l 574 389 l 479 389 m 308 597 l 485 597 l 485 867 l 308 597 z "},"⁄":{"ha":833,"x_min":147,"x_max":686,"o":"m 147 450 l 147 528 l 686 528 l 686 450 l 147 450 z "},"½":{"ha":833,"x_min":147,"x_max":686,"o":"m 278 579 l 278 660 l 372 660 l 372 864 l 282 853 l 282 931 l 414 971 l 465 971 l 465 660 l 571 660 l 571 579 l 278 579 m 147 450 l 147 528 l 686 528 l 686 450 l 147 450 m 269 0 l 269 74 q 408 178 353 131 q 463 271 463 226 q 451 303 463 290 q 417 315 439 315 q 374 299 388 315 q 360 263 360 283 l 271 263 q 318 366 276 335 q 417 397 360 397 q 520 365 483 397 q 557 278 557 332 q 531 197 557 235 q 469 129 506 160 q 399 75 432 99 l 568 75 l 568 0 l 269 0 z "},"¼":{"ha":833,"x_min":147,"x_max":686,"o":"m 278 579 l 278 660 l 372 660 l 372 864 l 282 853 l 282 931 l 414 971 l 465 971 l 465 660 l 571 660 l 571 579 l 278 579 m 147 450 l 147 528 l 686 528 l 686 450 l 147 450 m 424 -1 l 424 69 l 231 69 l 231 142 l 407 390 l 517 390 l 517 149 l 558 149 l 558 69 l 517 69 l 517 -1 l 424 -1 m 331 149 l 431 149 l 431 293 l 331 149 z "},"¾":{"ha":833,"x_min":147,"x_max":686,"o":"m 415 574 q 308 608 351 574 q 260 706 264 643 l 349 706 q 371 668 351 681 q 417 656 390 656 q 463 667 446 656 q 481 699 481 678 q 459 735 481 724 q 407 746 438 746 l 367 746 l 367 819 l 401 819 q 445 827 426 819 q 464 858 464 835 q 414 896 464 896 q 374 883 389 896 q 358 854 358 871 l 269 854 q 312 944 272 911 q 414 978 351 978 q 519 947 485 978 q 553 869 553 917 q 535 822 553 842 q 494 794 518 803 l 494 792 q 547 760 525 783 q 569 693 569 736 q 530 609 569 644 q 415 574 490 574 m 147 450 l 147 528 l 686 528 l 686 450 l 147 450 m 424 0 l 424 69 l 231 69 l 231 142 l 407 390 l 517 390 l 517 149 l 558 149 l 558 69 l 517 69 l 517 0 l 424 0 m 331 149 l 431 149 l 431 293 l 331 149 z "},".":{"ha":833,"x_min":313,"x_max":521,"o":"m 417 -3 q 343 26 374 -3 q 313 99 313 56 q 343 169 313 140 q 417 199 374 199 q 490 169 460 199 q 521 99 521 140 q 490 26 521 56 q 417 -3 460 -3 z "},",":{"ha":833,"x_min":228,"x_max":504,"o":"m 228 -169 l 350 204 l 504 204 l 339 -169 l 228 -169 z "},":":{"ha":833,"x_min":313,"x_max":521,"o":"m 417 -3 q 343 26 374 -3 q 313 99 313 56 q 343 169 313 140 q 417 199 374 199 q 490 169 460 199 q 521 99 521 140 q 490 26 521 56 q 417 -3 460 -3 m 417 546 q 343 575 374 546 q 313 647 313 604 q 343 718 313 689 q 417 747 374 747 q 490 718 460 747 q 521 647 521 689 q 490 575 521 604 q 417 546 460 546 z "},";":{"ha":833,"x_min":228,"x_max":521,"o":"m 417 546 q 343 575 374 546 q 313 647 313 604 q 343 718 313 689 q 417 747 374 747 q 490 718 460 747 q 521 647 521 689 q 490 575 521 604 q 417 546 460 546 m 228 -169 l 350 204 l 504 204 l 339 -169 l 228 -169 z "},"…":{"ha":833,"x_min":35,"x_max":799,"o":"m 136 -3 q 64 26 93 -3 q 35 99 35 56 q 64 169 35 140 q 136 199 93 199 q 207 169 178 199 q 236 99 236 140 q 207 26 236 56 q 136 -3 178 -3 m 417 -3 q 345 26 375 -3 q 315 99 315 56 q 345 169 315 140 q 417 199 375 199 q 488 169 458 199 q 518 99 518 140 q 488 26 518 56 q 417 -3 458 -3 m 697 -3 q 626 26 656 -3 q 597 99 597 56 q 626 169 597 140 q 697 199 656 199 q 769 169 740 199 q 799 99 799 140 q 769 26 799 56 q 697 -3 740 -3 z "},"!":{"ha":833,"x_min":313,"x_max":521,"o":"m 361 346 l 346 972 l 488 972 l 471 346 l 361 346 m 417 -3 q 343 26 374 -3 q 313 99 313 56 q 343 169 313 140 q 417 199 374 199 q 491 169 461 199 q 521 99 521 140 q 491 26 521 56 q 417 -3 461 -3 z "},"¡":{"ha":833,"x_min":313,"x_max":521,"o":"m 417 503 q 343 533 374 503 q 313 604 313 563 q 343 676 313 646 q 417 706 374 706 q 490 676 460 706 q 521 604 521 646 q 490 533 521 563 q 417 503 460 503 m 346 -306 l 363 357 l 472 357 l 488 -306 l 346 -306 z "},"?":{"ha":833,"x_min":99,"x_max":706,"o":"m 306 293 l 299 499 l 342 499 q 525 546 458 499 q 592 703 592 593 q 541 835 592 788 q 403 883 490 883 q 267 837 318 883 q 210 711 215 790 l 99 711 q 140 856 101 793 q 245 953 178 918 q 403 989 313 989 q 623 913 540 989 q 706 704 706 836 q 663 543 706 604 q 553 451 621 482 q 410 415 485 421 l 406 293 l 306 293 m 353 -3 q 279 26 310 -3 q 249 99 249 56 q 279 169 249 140 q 353 199 310 199 q 427 169 397 199 q 457 99 457 140 q 427 26 457 56 q 353 -3 397 -3 z "},"¿":{"ha":833,"x_min":99,"x_max":706,"o":"m 451 503 q 378 533 408 503 q 347 604 347 563 q 378 676 347 646 q 451 706 408 706 q 525 676 494 706 q 556 604 556 646 q 525 533 556 563 q 451 503 494 503 m 401 -322 q 181 -246 264 -322 q 99 -37 99 -169 q 141 124 99 63 q 251 215 183 185 q 394 251 319 246 l 399 408 l 499 408 l 506 168 l 463 168 q 279 121 346 168 q 213 -36 213 74 q 263 -169 213 -121 q 401 -217 314 -217 q 538 -169 486 -217 q 594 -44 589 -122 l 706 -44 q 665 -189 703 -126 q 559 -287 626 -251 q 401 -322 492 -322 z "},"·":{"ha":833,"x_min":313,"x_max":521,"o":"m 417 386 q 343 415 374 386 q 313 488 313 444 q 343 558 313 529 q 417 588 374 588 q 490 558 460 588 q 521 488 521 529 q 490 415 521 444 q 417 386 460 386 z "},"•":{"ha":833,"x_min":244,"x_max":589,"o":"m 417 314 q 331 338 369 314 q 268 400 292 361 q 244 486 244 439 q 268 572 244 533 q 331 635 292 611 q 417 658 369 658 q 503 635 464 658 q 565 572 542 611 q 589 486 589 533 q 565 400 589 439 q 503 338 542 361 q 417 314 464 314 z "},"*":{"ha":833,"x_min":89,"x_max":744,"o":"m 356 140 l 385 432 l 144 269 l 89 369 l 350 486 l 89 604 l 144 703 l 385 540 l 356 832 l 478 832 l 450 540 l 689 703 l 744 604 l 483 486 l 744 369 l 689 269 l 450 432 l 478 140 l 356 140 z "},"#":{"ha":833,"x_min":24,"x_max":810,"o":"m 124 0 l 167 274 l 24 274 l 24 376 l 182 376 l 217 596 l 79 596 l 79 699 l 233 699 l 275 972 l 386 972 l 343 699 l 557 699 l 599 972 l 710 972 l 667 699 l 810 699 l 810 596 l 651 596 l 617 376 l 756 376 l 756 274 l 600 274 l 558 0 l 447 0 l 490 274 l 276 274 l 235 0 l 124 0 m 293 376 l 506 376 l 540 596 l 328 596 l 293 376 z "},"/":{"ha":833,"x_min":115,"x_max":718,"o":"m 115 -125 l 596 1056 l 718 1056 l 236 -125 l 115 -125 z "},"\\":{"ha":833,"x_min":115,"x_max":718,"o":"m 597 -125 l 115 1056 l 238 1056 l 718 -125 l 597 -125 z "},"(":{"ha":833,"x_min":213,"x_max":607,"o":"m 483 -257 q 349 -77 411 -176 q 250 148 288 22 q 213 435 213 274 q 250 722 213 596 q 349 947 288 847 q 483 1126 411 1046 l 607 1126 l 607 1114 q 461 922 524 1024 q 364 700 399 819 q 329 435 329 581 q 364 169 329 289 q 461 -52 399 50 q 607 -244 524 -154 l 607 -257 l 483 -257 z "},")":{"ha":833,"x_min":226,"x_max":621,"o":"m 226 -257 l 226 -244 q 372 -52 310 -154 q 469 169 435 50 q 504 435 504 289 q 469 700 504 581 q 372 922 435 819 q 226 1114 310 1024 l 226 1126 l 350 1126 q 484 947 422 1046 q 583 722 546 847 q 621 435 621 596 q 583 148 621 274 q 484 -77 546 22 q 350 -257 422 -176 l 226 -257 z "},"{":{"ha":833,"x_min":158,"x_max":678,"o":"m 544 -257 q 385 -208 444 -257 q 326 -50 326 -158 q 334 45 326 3 q 349 136 342 88 q 357 253 357 185 q 326 348 357 313 q 224 383 294 383 l 158 383 l 158 486 l 224 486 q 326 522 294 486 q 357 617 357 557 q 349 734 357 686 q 334 824 342 782 q 326 919 326 867 q 385 1077 326 1028 q 544 1126 444 1126 l 678 1126 l 678 1024 l 557 1024 q 469 997 500 1024 q 439 907 439 969 q 447 810 439 851 q 462 727 454 769 q 469 625 469 685 q 438 503 469 551 q 354 438 406 456 l 354 432 q 438 366 406 414 q 469 244 469 318 q 462 142 469 185 q 447 59 454 100 q 439 -37 439 18 q 469 -127 439 -100 q 557 -154 500 -154 l 678 -154 l 678 -257 l 544 -257 z "},"}":{"ha":833,"x_min":156,"x_max":675,"o":"m 156 -257 l 156 -154 l 276 -154 q 364 -127 333 -154 q 394 -37 394 -100 q 387 59 394 18 q 372 142 379 100 q 364 244 364 185 q 396 366 364 318 q 479 432 428 414 l 479 438 q 396 503 428 456 q 364 625 364 551 q 372 727 364 685 q 387 810 379 769 q 394 907 394 851 q 364 997 394 969 q 276 1024 333 1024 l 156 1024 l 156 1126 l 289 1126 q 448 1077 389 1126 q 507 919 507 1028 q 499 824 507 867 q 484 734 492 782 q 476 617 476 686 q 508 522 476 557 q 610 486 539 486 l 675 486 l 675 383 l 610 383 q 508 348 539 383 q 476 253 476 313 q 484 136 476 185 q 499 45 492 88 q 507 -50 507 3 q 448 -208 507 -158 q 289 -257 389 -257 l 156 -257 z "},"[":{"ha":833,"x_min":238,"x_max":590,"o":"m 369 -257 q 272 -222 306 -257 q 238 -124 238 -187 l 238 993 q 272 1092 238 1057 q 369 1126 306 1126 l 590 1126 l 590 1024 l 381 1024 q 347 989 347 1024 l 347 -118 q 381 -153 347 -153 l 590 -153 l 590 -257 l 369 -257 z "},"]":{"ha":833,"x_min":243,"x_max":596,"o":"m 243 -257 l 243 -153 l 453 -153 q 486 -118 486 -153 l 486 989 q 453 1024 486 1024 l 243 1024 l 243 1126 l 464 1126 q 562 1092 528 1126 q 596 993 596 1057 l 596 -124 q 562 -222 596 -187 q 464 -257 528 -257 l 243 -257 z "},"-":{"ha":833,"x_min":188,"x_max":646,"o":"m 188 436 l 188 536 l 646 536 l 646 436 l 188 436 z "},"­":{"ha":833,"x_min":188,"x_max":646,"o":"m 188 436 l 188 536 l 646 536 l 646 436 l 188 436 z "},"–":{"ha":833,"x_min":132,"x_max":701,"o":"m 132 436 l 132 536 l 701 536 l 701 436 l 132 436 z "},"—":{"ha":833,"x_min":0,"x_max":833,"o":"m 0 436 l 0 536 l 833 536 l 833 436 l 0 436 z "},"_":{"ha":833,"x_min":104,"x_max":729,"o":"m 104 -107 l 104 0 l 729 0 l 729 -107 l 104 -107 z "},"‚":{"ha":833,"x_min":310,"x_max":553,"o":"m 310 -192 l 403 197 l 553 197 l 415 -192 l 310 -192 z "},"„":{"ha":833,"x_min":151,"x_max":700,"o":"m 151 -192 l 244 197 l 394 197 l 257 -192 l 151 -192 m 457 -192 l 550 197 l 700 197 l 563 -192 l 457 -192 z "},"“":{"ha":833,"x_min":126,"x_max":675,"o":"m 126 583 l 264 972 l 369 972 l 276 583 l 126 583 m 432 583 l 569 972 l 675 972 l 582 583 l 432 583 z "},"”":{"ha":833,"x_min":151,"x_max":700,"o":"m 151 583 l 244 972 l 394 972 l 257 583 l 151 583 m 457 583 l 550 972 l 700 972 l 563 583 l 457 583 z "},"‘":{"ha":833,"x_min":281,"x_max":524,"o":"m 281 583 l 418 972 l 524 972 l 431 583 l 281 583 z "},"’":{"ha":833,"x_min":310,"x_max":553,"o":"m 310 583 l 403 972 l 553 972 l 415 583 l 310 583 z "},"«":{"ha":833,"x_min":144,"x_max":679,"o":"m 557 136 l 394 410 l 557 683 l 679 683 l 524 413 l 524 407 l 679 136 l 557 136 m 307 136 l 144 410 l 307 683 l 429 683 l 274 413 l 274 407 l 429 136 l 307 136 z "},"»":{"ha":833,"x_min":154,"x_max":689,"o":"m 404 136 l 560 407 l 560 413 l 404 683 l 526 683 l 689 410 l 526 136 l 404 136 m 154 136 l 310 407 l 310 413 l 154 683 l 276 683 l 439 410 l 276 136 l 154 136 z "},"‹":{"ha":833,"x_min":276,"x_max":561,"o":"m 439 136 l 276 410 l 439 683 l 561 683 l 406 413 l 406 407 l 561 136 l 439 136 z "},"›":{"ha":833,"x_min":272,"x_max":557,"o":"m 272 136 l 428 407 l 428 413 l 272 683 l 394 683 l 557 410 l 394 136 l 272 136 z "},"\"":{"ha":833,"x_min":203,"x_max":632,"o":"m 203 543 l 203 972 l 331 972 l 331 543 l 203 543 m 504 543 l 504 972 l 632 972 l 632 543 l 504 543 z "},"'":{"ha":833,"x_min":353,"x_max":481,"o":"m 353 543 l 353 972 l 481 972 l 481 543 l 353 543 z "}," ":{"ha":833,"x_min":0,"x_max":0,"o":""}," ":{"ha":833,"x_min":0,"x_max":0,"o":""},"\r":{"ha":833,"x_min":0,"x_max":0,"o":""},"¢":{"ha":833,"x_min":108,"x_max":735,"o":"m 382 0 l 382 129 q 241 185 303 140 q 144 307 179 231 q 108 486 108 383 q 144 665 108 589 q 242 786 179 740 q 382 843 304 832 l 382 972 l 478 972 l 478 844 q 650 772 585 833 q 735 613 715 710 l 615 613 q 566 692 601 660 q 478 733 531 724 l 478 238 q 567 280 533 247 q 615 360 601 313 l 735 360 q 645 200 711 261 q 478 128 579 139 l 478 0 l 382 0 m 226 486 q 272 318 226 379 q 382 240 318 257 l 382 731 q 272 654 318 715 q 226 486 226 593 z "},"¤":{"ha":833,"x_min":132,"x_max":701,"o":"m 193 128 l 132 189 l 217 274 q 179 413 179 333 q 217 550 179 490 l 132 636 l 193 697 l 278 614 q 417 656 338 656 q 556 613 494 656 l 640 697 l 701 636 l 615 550 q 654 413 654 489 q 615 276 654 336 l 701 189 l 640 128 l 554 213 q 417 169 494 169 q 276 211 336 169 l 193 128 m 417 258 q 485 276 451 258 q 540 327 518 293 q 563 413 563 361 q 540 498 563 464 q 485 549 518 532 q 417 567 451 567 q 316 528 361 567 q 271 413 271 489 q 316 297 271 336 q 417 258 361 258 z "},"$":{"ha":833,"x_min":64,"x_max":760,"o":"m 365 -121 l 365 -14 q 147 85 228 3 q 64 296 65 168 l 186 296 q 233 166 188 222 q 365 94 278 110 l 365 463 q 158 570 219 501 q 96 739 96 639 q 166 905 96 836 q 365 986 236 974 l 365 1099 l 463 1099 l 463 988 q 663 902 589 975 q 739 721 738 829 l 618 721 q 578 818 617 771 q 463 879 540 865 l 463 550 q 476 546 469 547 q 685 447 611 511 q 760 264 760 382 q 723 127 760 188 q 619 29 686 67 q 463 -15 553 -8 l 463 -121 l 365 -121 m 217 740 q 249 650 217 688 q 365 581 282 613 l 365 881 q 258 834 300 871 q 217 740 217 797 m 639 256 q 599 364 639 324 q 463 436 560 404 l 463 90 q 594 147 549 100 q 639 256 639 193 z "},"€":{"ha":833,"x_min":3,"x_max":776,"o":"m 3 332 l 3 422 l 100 422 q 97 486 99 453 q 100 550 97 518 l 3 550 l 3 640 l 111 640 q 230 896 140 803 q 458 989 319 989 q 676 914 593 989 q 776 717 760 839 l 654 717 q 589 835 640 790 q 458 879 538 879 q 312 817 369 879 q 232 640 254 754 l 500 640 l 500 550 l 219 550 q 217 486 218 519 q 219 422 218 453 l 500 422 l 500 332 l 232 332 q 314 156 256 218 q 457 93 372 93 q 589 138 540 93 q 656 250 638 182 l 776 250 q 669 56 749 128 q 457 -17 590 -17 q 227 76 315 -17 q 111 332 139 169 l 3 332 z "},"ƒ":{"ha":833,"x_min":35,"x_max":790,"o":"m 35 -306 l 35 -199 l 117 -199 q 195 -178 169 -199 q 231 -104 221 -157 l 354 589 l 197 589 l 197 689 l 371 689 l 392 799 q 465 953 410 906 q 631 1000 521 1000 l 790 1000 l 790 894 l 621 894 q 543 873 569 894 q 508 799 517 851 l 489 689 l 739 689 l 739 589 l 471 589 l 347 -104 q 276 -258 328 -211 q 107 -306 224 -306 l 35 -306 z "},"₽":{"ha":833,"x_min":49,"x_max":788,"o":"m 175 0 l 175 172 l 49 172 l 49 264 l 175 264 l 175 972 l 468 972 q 650 932 579 972 q 754 825 721 892 q 788 678 788 758 q 754 531 788 597 q 650 424 721 464 q 468 383 579 383 l 292 383 l 292 264 l 567 264 l 567 172 l 292 172 l 292 0 l 175 0 m 292 490 l 465 490 q 618 542 568 490 q 668 678 668 594 q 618 814 668 761 q 465 867 568 867 l 292 867 l 292 490 z "},"£":{"ha":833,"x_min":61,"x_max":746,"o":"m 115 0 l 115 75 q 199 189 167 132 q 231 324 231 246 q 227 370 231 347 q 218 414 224 393 l 61 414 l 61 507 l 185 507 q 153 597 168 550 q 139 704 139 644 q 178 854 139 790 q 285 953 217 918 q 443 989 353 989 q 608 951 542 989 q 708 849 674 914 q 744 704 742 785 l 631 704 q 578 834 626 782 q 443 886 531 886 q 351 867 394 886 q 281 806 308 847 q 254 699 254 764 q 269 601 254 649 q 300 507 283 553 l 567 507 l 567 414 l 331 414 q 340 374 336 394 q 343 332 343 353 q 321 212 343 264 q 257 110 299 160 l 257 104 l 746 104 l 746 0 l 115 0 z "},"¥":{"ha":833,"x_min":43,"x_max":790,"o":"m 107 222 l 107 317 l 358 317 l 358 382 l 331 433 l 107 433 l 107 529 l 279 529 l 43 972 l 175 972 l 417 500 l 658 972 l 790 972 l 554 529 l 726 529 l 726 433 l 503 433 l 475 382 l 475 317 l 726 317 l 726 222 l 475 222 l 475 0 l 358 0 l 358 222 l 107 222 z "},"∕":{"ha":833,"x_min":115,"x_max":718,"o":"m 115 -125 l 596 1056 l 718 1056 l 236 -125 l 115 -125 z "},"+":{"ha":833,"x_min":104,"x_max":729,"o":"m 364 174 l 364 433 l 104 433 l 104 539 l 364 539 l 364 799 l 469 799 l 469 539 l 729 539 l 729 433 l 469 433 l 469 174 l 364 174 z "},"−":{"ha":833,"x_min":104,"x_max":729,"o":"m 104 433 l 104 539 l 729 539 l 729 433 l 104 433 z "},"×":{"ha":833,"x_min":119,"x_max":714,"o":"m 194 189 l 119 264 l 342 486 l 119 708 l 194 783 l 417 561 l 639 783 l 714 708 l 492 486 l 714 264 l 639 189 l 417 411 l 194 189 z "},"÷":{"ha":833,"x_min":104,"x_max":729,"o":"m 104 433 l 104 539 l 729 539 l 729 433 l 104 433 m 417 101 q 343 131 374 101 q 313 203 313 160 q 343 274 313 244 q 417 303 374 303 q 490 274 460 303 q 521 203 521 244 q 490 131 521 160 q 417 101 460 101 m 417 669 q 343 699 374 669 q 313 771 313 728 q 343 842 313 813 q 417 871 374 871 q 490 842 460 871 q 521 771 521 813 q 490 699 521 728 q 417 669 460 669 z "},"=":{"ha":833,"x_min":104,"x_max":729,"o":"m 104 604 l 104 710 l 729 710 l 729 604 l 104 604 m 104 263 l 104 368 l 729 368 l 729 263 l 104 263 z "},"≠":{"ha":833,"x_min":104,"x_max":729,"o":"m 164 65 l 256 263 l 104 263 l 104 368 l 304 368 l 414 604 l 104 604 l 104 710 l 464 710 l 556 908 l 669 908 l 578 710 l 729 710 l 729 604 l 528 604 l 418 368 l 729 368 l 729 263 l 369 263 l 278 65 l 164 65 z "},">":{"ha":833,"x_min":160,"x_max":686,"o":"m 160 111 l 526 482 l 526 490 l 160 858 l 317 858 l 686 486 l 317 111 l 160 111 z "},"<":{"ha":833,"x_min":147,"x_max":675,"o":"m 517 111 l 147 486 l 517 858 l 675 858 l 308 490 l 308 482 l 675 111 l 517 111 z "},"≥":{"ha":833,"x_min":104,"x_max":729,"o":"m 144 196 l 503 457 l 503 465 l 144 725 l 325 725 l 689 461 l 325 196 l 144 196 m 104 0 l 104 106 l 729 106 l 729 0 l 104 0 z "},"≤":{"ha":833,"x_min":104,"x_max":729,"o":"m 508 196 l 144 461 l 508 725 l 689 725 l 331 465 l 331 457 l 689 196 l 508 196 m 104 0 l 104 106 l 729 106 l 729 0 l 104 0 z "},"±":{"ha":833,"x_min":104,"x_max":729,"o":"m 364 247 l 364 433 l 104 433 l 104 539 l 364 539 l 364 725 l 469 725 l 469 539 l 729 539 l 729 433 l 469 433 l 469 247 l 364 247 m 104 0 l 104 106 l 729 106 l 729 0 l 104 0 z "},"≈":{"ha":833,"x_min":110,"x_max":724,"o":"m 538 556 q 464 569 497 556 q 402 601 431 583 q 347 633 374 619 q 292 646 319 646 q 235 622 257 646 q 208 556 213 597 l 110 556 q 167 702 118 654 q 296 750 217 750 q 369 737 336 750 q 431 706 403 724 q 487 674 460 688 q 542 660 514 660 q 599 685 576 660 q 625 750 621 710 l 724 750 q 666 603 715 651 q 538 556 617 556 m 538 236 q 464 250 497 236 q 402 282 431 264 q 347 313 374 300 q 292 326 319 326 q 235 302 257 326 q 208 236 213 278 l 110 236 q 167 383 118 335 q 296 431 217 431 q 369 417 336 431 q 431 386 403 404 q 487 354 460 368 q 542 340 514 340 q 599 365 576 340 q 625 431 621 390 l 724 431 q 666 284 715 332 q 538 236 617 236 z "},"~":{"ha":833,"x_min":110,"x_max":724,"o":"m 538 347 q 464 361 497 347 q 402 393 431 375 q 347 424 374 411 q 292 438 319 438 q 235 413 257 438 q 208 347 213 389 l 110 347 q 167 494 118 446 q 296 542 217 542 q 369 528 336 542 q 431 497 403 515 q 487 465 460 479 q 542 451 514 451 q 599 476 576 451 q 625 542 621 501 l 724 542 q 666 395 715 443 q 538 347 617 347 z "},"¬":{"ha":833,"x_min":104,"x_max":729,"o":"m 624 174 l 624 433 l 104 433 l 104 539 l 729 539 l 729 174 l 624 174 z "},"^":{"ha":833,"x_min":75,"x_max":758,"o":"m 75 519 l 363 972 l 471 972 l 758 519 l 636 519 l 419 864 l 414 864 l 197 519 l 75 519 z "},"∞":{"ha":833,"x_min":17,"x_max":817,"o":"m 217 201 q 74 253 132 201 q 17 400 17 306 q 76 545 17 493 q 217 597 135 597 q 332 561 286 597 q 413 476 378 525 q 497 563 444 529 q 617 597 549 597 q 759 545 701 597 q 817 400 817 493 q 757 254 817 307 q 611 201 697 201 q 499 236 544 201 q 417 317 453 271 q 335 234 386 267 q 217 201 285 201 m 110 400 q 142 319 110 349 q 221 290 174 290 q 305 319 269 290 q 364 392 340 347 q 296 474 331 439 q 215 510 261 510 q 141 481 172 510 q 110 400 110 451 m 613 510 q 528 478 567 508 q 465 400 490 449 q 532 323 497 356 q 618 290 567 290 q 694 319 664 290 q 724 400 724 349 q 693 481 724 451 q 613 510 663 510 z "},"∫":{"ha":833,"x_min":72,"x_max":761,"o":"m 72 -306 l 72 -199 l 165 -199 q 243 -178 217 -199 q 278 -104 269 -157 l 439 799 q 513 953 458 906 q 678 1000 568 1000 l 761 1000 l 761 894 l 669 894 q 590 873 617 894 q 556 799 564 851 l 394 -104 q 324 -258 376 -211 q 156 -306 271 -306 l 72 -306 z "},"Ω":{"ha":833,"x_min":40,"x_max":793,"o":"m 63 0 l 63 96 l 265 96 l 265 138 q 151 241 203 178 q 70 390 100 304 q 40 579 40 475 q 90 794 40 701 q 224 938 139 886 q 417 989 310 989 q 608 938 522 989 q 743 794 693 886 q 793 579 793 701 q 728 310 793 424 q 567 138 663 197 l 567 96 l 771 96 l 771 0 l 461 0 l 461 188 q 572 278 525 228 q 647 401 619 329 q 674 579 674 474 q 641 737 674 669 q 551 842 608 804 q 417 879 493 879 q 282 842 340 879 q 192 737 224 804 q 160 579 160 669 q 186 401 160 474 q 260 278 213 329 q 371 188 308 228 l 371 0 l 63 0 z "},"∆":{"ha":833,"x_min":61,"x_max":772,"o":"m 61 0 l 61 100 l 350 972 l 485 972 l 772 100 l 772 0 l 61 0 m 186 106 l 647 106 l 419 818 l 414 818 l 186 106 z "},"∏":{"ha":833,"x_min":44,"x_max":789,"o":"m 147 0 l 147 867 l 44 867 l 44 972 l 789 972 l 789 867 l 686 867 l 686 0 l 569 0 l 569 867 l 264 867 l 264 0 l 147 0 z "},"∑":{"ha":833,"x_min":93,"x_max":731,"o":"m 93 -137 l 93 -21 l 436 417 l 106 858 l 106 972 l 707 972 l 707 872 l 239 872 l 547 447 l 547 385 l 221 -39 l 731 -39 l 731 -137 l 93 -137 z "},"√":{"ha":833,"x_min":46,"x_max":814,"o":"m 249 0 l 46 494 l 179 494 l 315 136 l 611 972 l 814 972 l 814 872 l 696 872 l 381 0 l 249 0 z "},"µ":{"ha":833,"x_min":115,"x_max":711,"o":"m 115 -306 l 115 689 l 232 689 l 232 289 q 273 145 232 197 q 397 93 314 93 q 538 149 481 93 q 594 311 594 206 l 594 689 l 711 689 l 711 0 l 614 0 l 601 104 l 594 104 q 510 19 567 54 q 381 -17 453 -17 q 232 43 281 -17 l 232 -306 l 115 -306 z "},"∂":{"ha":833,"x_min":78,"x_max":767,"o":"m 374 -17 q 216 25 282 -17 q 114 140 150 67 q 78 310 78 214 q 103 455 78 385 q 175 581 128 525 q 290 671 222 638 q 442 704 357 704 q 566 674 513 704 q 649 599 619 644 l 656 599 q 573 778 635 699 q 396 906 511 857 l 449 1000 q 679 815 592 946 q 767 478 767 683 q 740 294 767 383 q 663 135 714 206 q 540 24 613 65 q 374 -17 467 -17 m 381 92 q 514 138 454 92 q 610 269 574 185 q 650 465 647 353 q 565 563 614 529 q 444 596 517 596 q 310 556 365 596 q 226 453 254 517 q 197 317 197 390 q 250 152 197 213 q 381 92 303 92 z "},"%":{"ha":833,"x_min":26,"x_max":807,"o":"m 231 558 q 84 617 142 558 q 26 774 26 675 q 84 931 26 872 q 231 989 142 989 q 377 931 319 989 q 435 774 435 872 q 377 617 435 675 q 231 558 319 558 m 231 642 q 309 676 275 642 q 343 774 343 710 q 309 872 343 838 q 231 906 275 906 q 152 872 186 906 q 118 774 118 838 q 152 676 118 710 q 231 642 186 642 m 97 90 l 31 156 l 736 882 l 803 817 l 97 90 m 603 -17 q 456 42 514 -17 q 399 199 399 100 q 456 356 399 297 q 603 414 514 414 q 749 356 692 414 q 807 199 807 297 q 749 42 807 100 q 603 -17 692 -17 m 603 67 q 681 101 647 67 q 715 199 715 135 q 681 297 715 263 q 603 331 647 331 q 524 297 558 331 q 490 199 490 263 q 524 101 490 135 q 603 67 558 67 z "},"‰":{"ha":833,"x_min":17,"x_max":825,"o":"m 231 558 q 84 617 142 558 q 26 774 26 675 q 84 931 26 872 q 231 989 142 989 q 377 931 319 989 q 435 774 435 872 q 377 617 435 675 q 231 558 319 558 m 231 642 q 309 676 275 642 q 343 774 343 710 q 309 872 343 838 q 231 906 275 906 q 152 872 186 906 q 118 774 118 838 q 152 676 118 710 q 231 642 186 642 m 56 314 l 17 393 l 714 735 l 753 656 l 56 314 m 376 -17 q 247 42 297 -17 q 196 199 196 100 q 247 356 196 297 q 376 414 297 414 q 452 397 418 414 q 510 347 486 379 q 569 397 535 379 q 644 414 603 414 q 774 356 724 414 q 825 199 825 297 q 774 42 825 100 q 644 -17 724 -17 q 569 1 603 -17 q 510 50 535 18 q 452 1 486 18 q 376 -17 418 -17 m 376 67 q 439 101 414 67 q 464 199 464 135 q 439 297 464 263 q 376 331 414 331 q 313 297 338 331 q 289 199 289 263 q 313 101 289 135 q 376 67 338 67 m 644 67 q 708 101 682 67 q 733 199 733 135 q 708 297 733 263 q 644 331 682 331 q 582 297 607 331 q 557 199 557 263 q 582 101 557 135 q 644 67 607 67 z "},"◊":{"ha":833,"x_min":54,"x_max":779,"o":"m 350 0 l 54 486 l 350 972 l 485 972 l 779 486 l 485 0 l 350 0 m 414 106 l 419 106 l 651 486 l 419 867 l 414 867 l 183 486 l 414 106 z "},"@":{"ha":833,"x_min":65,"x_max":772,"o":"m 518 -131 q 266 -59 367 -131 q 115 138 165 13 q 65 421 65 263 q 98 669 65 565 q 188 841 131 774 q 315 940 244 908 q 463 972 386 972 q 689 900 606 972 q 772 693 772 828 l 772 149 l 689 149 l 678 228 l 672 228 q 613 163 651 189 q 517 136 575 136 q 344 211 413 136 q 276 422 276 286 q 344 632 276 558 q 517 706 411 706 q 613 685 575 706 q 672 629 651 664 l 672 693 q 615 828 672 779 q 463 878 557 878 q 322 833 389 878 q 213 689 256 789 q 171 421 171 589 q 208 194 171 299 q 324 27 246 90 q 518 -36 401 -36 l 713 -36 l 713 -131 l 518 -131 m 525 224 q 631 272 589 224 q 672 421 672 319 q 631 570 672 522 q 525 618 589 618 q 419 570 461 618 q 378 421 378 522 q 419 272 378 319 q 525 224 461 224 z "},"&":{"ha":833,"x_min":49,"x_max":818,"o":"m 347 -17 q 191 20 258 -17 q 86 124 124 57 q 49 281 49 190 q 94 440 49 368 q 224 560 139 511 q 169 663 186 614 q 151 761 151 711 q 219 924 151 860 q 401 989 286 989 q 578 926 513 989 q 644 768 644 864 l 529 768 q 490 855 529 824 q 400 886 451 886 q 302 851 338 886 q 267 763 267 817 q 289 675 267 719 q 357 574 311 631 l 578 299 l 671 503 l 794 503 l 654 204 l 818 0 l 681 0 l 594 104 q 492 16 553 49 q 347 -17 432 -17 m 165 283 q 216 144 165 200 q 347 89 267 89 q 447 115 406 89 q 522 193 489 142 l 288 478 q 165 283 165 410 z "},"¶":{"ha":833,"x_min":83,"x_max":724,"o":"m 422 -139 l 422 415 l 411 415 q 226 452 299 415 q 119 551 154 489 q 83 693 83 614 q 119 836 83 774 q 227 935 154 899 q 411 972 300 972 l 724 972 l 724 -139 l 628 -139 l 628 886 l 517 886 l 517 -139 l 422 -139 z "},"§":{"ha":833,"x_min":85,"x_max":747,"o":"m 413 -322 q 252 -288 321 -322 q 145 -193 183 -254 q 107 -53 107 -132 l 228 -53 q 249 -129 228 -92 q 313 -192 271 -167 q 417 -217 354 -217 q 545 -180 493 -217 q 597 -78 597 -143 q 574 3 597 -31 q 499 63 551 36 q 356 121 446 90 q 210 184 271 149 q 117 271 150 219 q 85 400 85 322 q 107 501 85 454 q 168 581 129 547 q 114 744 114 647 q 150 869 114 814 q 254 957 186 925 q 419 989 322 989 q 580 955 511 989 q 687 860 649 921 q 725 719 725 799 l 603 719 q 582 796 603 758 q 519 858 561 833 q 414 883 478 883 q 286 847 338 883 q 235 746 235 810 q 258 664 235 697 q 333 603 281 631 q 476 546 386 576 q 622 483 561 518 q 715 396 682 447 q 747 268 747 344 q 725 167 747 213 q 663 86 703 121 q 717 -78 717 21 q 681 -203 717 -147 q 578 -290 646 -258 q 413 -322 510 -322 m 463 204 q 581 154 531 183 q 626 254 626 197 q 601 342 626 307 q 520 406 576 378 q 369 463 464 433 q 251 513 300 483 q 206 407 206 468 q 231 323 206 357 q 312 261 256 289 q 463 204 368 233 z "},"©":{"ha":833,"x_min":14,"x_max":819,"o":"m 417 83 q 211 136 303 83 q 67 281 119 189 q 14 486 14 372 q 67 692 14 601 q 211 836 119 783 q 417 889 303 889 q 623 836 532 889 q 767 692 714 783 q 819 486 819 601 q 767 281 819 372 q 623 136 714 189 q 417 83 532 83 m 417 146 q 590 190 514 146 q 710 312 665 235 q 754 486 754 389 q 710 661 754 585 q 590 782 665 738 q 417 826 514 826 q 244 782 321 826 q 124 661 168 738 q 79 486 79 585 q 124 312 79 389 q 244 190 168 235 q 417 146 321 146 m 415 236 q 258 301 322 236 q 194 486 194 367 q 225 622 194 567 q 306 707 256 678 q 415 736 356 736 q 553 693 503 736 q 618 578 604 650 l 549 578 q 501 647 533 622 q 415 672 468 672 q 310 627 356 672 q 264 486 264 582 q 310 344 264 390 q 415 299 356 299 q 506 325 472 299 q 551 394 540 351 l 618 394 q 549 278 601 319 q 415 236 497 236 z "},"®":{"ha":833,"x_min":14,"x_max":819,"o":"m 417 83 q 211 136 303 83 q 67 281 119 189 q 14 486 14 372 q 67 692 14 601 q 211 836 119 783 q 417 889 303 889 q 623 836 532 889 q 767 692 714 783 q 819 486 819 601 q 767 281 819 372 q 623 136 714 189 q 417 83 532 83 m 417 146 q 590 190 514 146 q 710 312 665 235 q 754 486 754 389 q 710 661 754 585 q 590 782 665 738 q 417 826 514 826 q 244 782 321 826 q 124 661 168 738 q 79 486 79 585 q 124 312 79 389 q 244 190 168 235 q 417 146 321 146 m 271 243 l 271 729 l 419 729 q 543 690 503 729 q 583 589 583 650 q 560 506 583 542 q 488 457 536 471 l 597 243 l 519 243 l 418 447 l 340 447 l 340 243 l 271 243 m 340 511 l 418 511 q 493 533 469 511 q 517 589 517 556 q 494 644 517 624 q 418 665 471 665 l 340 665 l 340 511 z "},"™":{"ha":833,"x_min":32,"x_max":810,"o":"m 440 486 l 440 972 l 536 972 l 625 756 l 715 972 l 810 972 l 810 486 l 724 486 l 724 800 l 661 642 l 589 642 l 526 801 l 526 486 l 440 486 m 163 486 l 163 890 l 32 890 l 32 972 l 385 972 l 385 890 l 254 890 l 254 486 l 163 486 z "},"°":{"ha":833,"x_min":214,"x_max":621,"o":"m 417 582 q 315 606 361 582 q 241 676 268 631 q 214 785 214 722 q 241 892 214 846 q 315 963 268 938 q 417 989 361 989 q 519 963 472 989 q 593 892 565 938 q 621 785 621 846 q 593 676 621 722 q 519 606 565 631 q 417 582 472 582 m 417 667 q 497 699 463 667 q 531 786 531 731 q 497 872 531 840 q 417 904 463 904 q 337 872 371 904 q 303 786 303 840 q 337 699 303 731 q 417 667 371 667 z "},"|":{"ha":833,"x_min":358,"x_max":475,"o":"m 358 -375 l 358 1000 l 475 1000 l 475 -375 l 358 -375 z "},"¦":{"ha":833,"x_min":358,"x_max":475,"o":"m 358 428 l 358 1000 l 475 1000 l 475 428 l 358 428 m 358 -375 l 358 197 l 475 197 l 475 -375 l 358 -375 z "},"†":{"ha":833,"x_min":161,"x_max":672,"o":"m 360 219 l 360 710 l 161 710 l 161 804 l 360 804 l 360 972 l 474 972 l 474 804 l 672 804 l 672 710 l 474 710 l 474 219 l 360 219 z "},"ℓ":{"ha":833,"x_min":92,"x_max":738,"o":"m 493 0 q 261 76 344 0 q 178 299 178 153 q 178 304 178 303 q 92 285 136 293 l 92 389 q 183 411 139 399 q 228 628 196 525 q 311 813 261 732 q 424 942 361 894 q 558 989 486 989 q 691 944 644 989 q 738 817 738 900 q 619 535 738 658 q 296 339 500 411 q 294 300 294 319 q 348 154 294 201 q 496 106 401 107 l 643 106 l 643 0 l 493 0 m 557 886 q 457 830 508 886 q 365 676 406 774 q 306 451 324 578 q 544 612 463 517 q 626 807 626 707 q 608 866 626 846 q 557 886 589 886 z "},"‡":{"ha":833,"x_min":161,"x_max":672,"o":"m 360 219 l 360 388 l 161 388 l 161 483 l 360 483 l 360 710 l 161 710 l 161 804 l 360 804 l 360 972 l 474 972 l 474 804 l 672 804 l 672 710 l 474 710 l 474 483 l 672 483 l 672 388 l 474 388 l 474 219 l 360 219 z "},"℮":{"ha":833,"x_min":35,"x_max":799,"o":"m 417 74 q 221 121 307 74 q 85 258 135 168 q 35 479 35 349 q 83 685 35 593 q 217 831 131 776 q 418 885 304 885 q 626 832 542 885 q 755 694 711 779 q 799 513 799 608 l 799 461 l 172 461 l 172 253 q 267 166 207 201 q 417 131 328 131 q 594 178 515 131 q 711 311 672 226 l 781 311 q 640 138 733 201 q 417 74 546 74 m 172 529 l 667 529 l 667 706 q 556 797 619 767 q 418 826 493 826 q 278 797 340 826 q 172 706 215 767 l 172 529 z "},"̈":{"ha":0,"x_min":211,"x_max":622,"o":"m 544 785 q 488 808 511 785 q 465 864 465 832 q 488 921 465 897 q 544 944 511 944 q 600 921 578 944 q 622 864 622 897 q 600 808 622 832 q 544 785 578 785 m 290 785 q 234 808 257 785 q 211 864 211 832 q 234 921 211 897 q 290 944 257 944 q 347 921 324 944 q 369 864 369 897 q 347 808 369 832 q 290 785 324 785 z "},"̇":{"ha":0,"x_min":319,"x_max":514,"o":"m 417 811 q 348 839 376 811 q 319 906 319 867 q 348 973 319 946 q 417 1000 376 1000 q 486 973 458 1000 q 514 906 514 946 q 486 839 514 867 q 417 811 458 811 z "},"̀":{"ha":0,"x_min":271,"x_max":563,"o":"m 563 744 l 271 890 l 271 1010 l 563 854 l 563 744 z "},"́":{"ha":0,"x_min":271,"x_max":563,"o":"m 271 744 l 271 854 l 563 1010 l 563 890 l 271 744 z "},"̋":{"ha":0,"x_min":210,"x_max":624,"o":"m 425 769 l 515 979 l 624 979 l 510 769 l 425 769 m 210 769 l 301 979 l 408 979 l 294 769 l 210 769 z "},"̂":{"ha":0,"x_min":226,"x_max":607,"o":"m 226 765 l 226 868 l 417 979 l 607 868 l 607 765 l 419 876 l 414 876 l 226 765 z "},"̌":{"ha":0,"x_min":226,"x_max":607,"o":"m 417 765 l 226 876 l 226 979 l 414 868 l 419 868 l 607 979 l 607 876 l 417 765 z "},"̆":{"ha":0,"x_min":221,"x_max":613,"o":"m 417 768 q 272 821 324 768 q 221 950 221 874 l 221 968 l 304 968 q 335 885 304 914 q 417 857 365 857 q 498 885 468 857 q 528 968 528 914 l 613 968 l 613 950 q 560 820 613 872 q 417 768 508 768 z "},"̊":{"ha":0,"x_min":271,"x_max":563,"o":"m 417 774 q 314 812 357 774 q 271 917 271 850 q 314 1021 271 982 q 417 1060 357 1060 q 519 1021 476 1060 q 563 917 563 982 q 519 812 563 850 q 417 774 476 774 m 417 835 q 473 856 450 835 q 496 917 496 878 q 473 976 496 954 q 417 997 450 997 q 360 976 383 997 q 338 917 338 954 q 360 856 338 878 q 417 835 383 835 z "},"̃":{"ha":0,"x_min":200,"x_max":633,"o":"m 501 804 q 435 819 463 804 q 386 848 408 833 q 336 863 364 863 q 278 807 286 863 l 200 807 q 240 910 204 874 q 331 946 275 946 q 396 931 369 946 q 444 902 422 917 q 496 888 467 888 q 557 943 549 888 l 633 943 q 595 841 632 878 q 501 804 558 804 z "},"̄":{"ha":0,"x_min":190,"x_max":643,"o":"m 190 828 l 190 919 l 643 919 l 643 828 l 190 828 z "},"̒":{"ha":0,"x_min":293,"x_max":522,"o":"m 293 783 l 418 1050 l 522 1050 l 443 783 l 293 783 z "},"̦":{"ha":0,"x_min":269,"x_max":501,"o":"m 269 -367 l 351 -94 l 501 -94 l 378 -367 l 269 -367 z "},"̧":{"ha":0,"x_min":328,"x_max":644,"o":"m 328 -360 l 328 -286 l 467 -286 q 528 -269 506 -286 q 550 -219 550 -253 q 528 -174 550 -189 q 467 -158 506 -158 l 388 -158 l 388 10 l 467 10 l 467 -87 l 479 -87 q 599 -120 553 -87 q 644 -221 644 -153 q 597 -324 644 -287 q 478 -360 550 -360 l 328 -360 z "},"̨":{"ha":0,"x_min":296,"x_max":540,"o":"m 444 -290 q 342 -256 388 -290 q 296 -147 296 -221 q 334 -42 296 -83 q 431 31 372 -1 l 499 67 l 535 0 l 469 -37 q 412 -83 433 -58 q 390 -142 390 -107 q 411 -191 390 -175 q 464 -207 432 -207 q 499 -203 482 -207 q 540 -186 515 -199 l 540 -272 q 444 -290 496 -290 z "},"´":{"ha":833,"x_min":271,"x_max":563,"o":"m 271 744 l 271 854 l 563 1010 l 563 890 l 271 744 z "},"˘":{"ha":833,"x_min":221,"x_max":613,"o":"m 417 768 q 272 821 324 768 q 221 950 221 874 l 221 968 l 304 968 q 335 885 304 914 q 417 857 365 857 q 498 885 468 857 q 528 968 528 914 l 613 968 l 613 950 q 560 820 613 872 q 417 768 508 768 z "},"ˇ":{"ha":833,"x_min":226,"x_max":607,"o":"m 417 765 l 226 876 l 226 979 l 414 868 l 419 868 l 607 979 l 607 876 l 417 765 z "},"¸":{"ha":833,"x_min":328,"x_max":644,"o":"m 328 -360 l 328 -286 l 467 -286 q 528 -269 506 -286 q 550 -219 550 -253 q 528 -174 550 -189 q 467 -158 506 -158 l 388 -158 l 388 10 l 467 10 l 467 -87 l 479 -87 q 599 -120 553 -87 q 644 -221 644 -153 q 597 -324 644 -287 q 478 -360 550 -360 l 328 -360 z "},"ˆ":{"ha":833,"x_min":226,"x_max":607,"o":"m 226 765 l 226 868 l 417 979 l 607 868 l 607 765 l 419 876 l 414 876 l 226 765 z "},"¨":{"ha":833,"x_min":211,"x_max":622,"o":"m 544 785 q 488 808 511 785 q 465 864 465 832 q 488 921 465 897 q 544 944 511 944 q 600 921 578 944 q 622 864 622 897 q 600 808 622 832 q 544 785 578 785 m 290 785 q 234 808 257 785 q 211 864 211 832 q 234 921 211 897 q 290 944 257 944 q 347 921 324 944 q 369 864 369 897 q 347 808 369 832 q 290 785 324 785 z "},"˙":{"ha":833,"x_min":319,"x_max":514,"o":"m 417 811 q 348 839 376 811 q 319 906 319 867 q 348 973 319 946 q 417 1000 376 1000 q 486 973 458 1000 q 514 906 514 946 q 486 839 514 867 q 417 811 458 811 z "},"`":{"ha":833,"x_min":271,"x_max":563,"o":"m 563 744 l 271 890 l 271 1010 l 563 854 l 563 744 z "},"˝":{"ha":833,"x_min":210,"x_max":624,"o":"m 425 769 l 515 979 l 624 979 l 510 769 l 425 769 m 210 769 l 301 979 l 408 979 l 294 769 l 210 769 z "},"¯":{"ha":833,"x_min":190,"x_max":643,"o":"m 190 828 l 190 919 l 643 919 l 643 828 l 190 828 z "},"˛":{"ha":833,"x_min":296,"x_max":540,"o":"m 444 -290 q 342 -256 388 -290 q 296 -147 296 -221 q 334 -42 296 -83 q 431 31 372 -1 l 499 67 l 535 0 l 469 -37 q 412 -83 433 -58 q 390 -142 390 -107 q 411 -191 390 -175 q 464 -207 432 -207 q 499 -203 482 -207 q 540 -186 515 -199 l 540 -272 q 444 -290 496 -290 z "},"˚":{"ha":833,"x_min":271,"x_max":563,"o":"m 417 774 q 314 812 357 774 q 271 917 271 850 q 314 1021 271 982 q 417 1060 357 1060 q 519 1021 476 1060 q 563 917 563 982 q 519 812 563 850 q 417 774 476 774 m 417 835 q 473 856 450 835 q 496 917 496 878 q 473 976 496 954 q 417 997 450 997 q 360 976 383 997 q 338 917 338 954 q 360 856 338 878 q 417 835 383 835 z "},"˜":{"ha":833,"x_min":200,"x_max":633,"o":"m 501 804 q 435 819 463 804 q 386 848 408 833 q 336 863 364 863 q 278 807 286 863 l 200 807 q 240 910 204 874 q 331 946 275 946 q 396 931 369 946 q 444 902 422 917 q 496 888 467 888 q 557 943 549 888 l 633 943 q 595 841 632 878 q 501 804 558 804 z "}}}
